<?xml version="1.0" standalone="no"?>
<!DOCTYPE svg PUBLIC "-//W3C//DTD SVG 20010904//EN"
 "http://www.w3.org/TR/2001/REC-SVG-20010904/DTD/svg10.dtd">
<svg version="1.0" xmlns="http://www.w3.org/2000/svg"
 width="1000.000000pt" height="1000.000000pt" viewBox="0 0 1000.000000 1000.000000"
 preserveAspectRatio="xMidYMid meet">

<g transform="translate(0.000000,1000.000000) scale(0.100000,-0.100000)"
fill="#000000" stroke="none">
<path d="M3083 8176 c5 -13 -2 -16 -33 -16 -21 0 -42 5 -46 11 -5 9 -36 9
-113 3 -86 -7 -1272 -10 -1417 -4 -26 1 -53 -6 -77 -20 -27 -16 -37 -18 -37
-8 0 10 -3 9 -10 -2 -9 -13 -10 -13 -10 0 0 10 -3 11 -8 4 -4 -6 -18 -14 -32
-17 -108 -25 -183 -54 -175 -68 3 -3 -8 -4 -23 -2 -21 4 -24 2 -12 -6 13 -9
13 -11 0 -11 -31 0 -101 -33 -96 -46 5 -13 -18 -38 -38 -40 -6 0 -16 -2 -23
-2 -6 -1 -13 -12 -15 -24 -2 -12 -9 -23 -17 -26 -8 -3 -11 0 -7 7 4 6 2 11 -5
11 -6 0 -9 -8 -6 -20 3 -11 2 -18 -2 -15 -5 2 -21 -9 -37 -26 -23 -24 -25 -29
-9 -24 12 4 0 -12 -27 -37 -27 -25 -48 -49 -48 -54 0 -5 5 -2 11 6 7 11 8 4 3
-25 -7 -42 -23 -81 -24 -57 0 7 -5 10 -11 6 -6 -3 -8 -18 -5 -33 4 -14 3 -21
-1 -14 -6 8 -14 2 -25 -18 -17 -28 -16 -30 2 -42 23 -14 27 -29 6 -21 -10 4
-14 -4 -14 -32 0 -24 -6 -40 -16 -46 -17 -10 -22 -53 -7 -62 5 -3 7 -56 4
-118 -5 -135 -4 -129 -3 -198 3 -112 -3 -251 -11 -256 -13 -7 -11 -54 1 -54 6
0 8 -11 4 -25 -4 -17 -2 -25 7 -25 10 -1 9 -4 -3 -13 -26 -21 -33 -63 -12 -75
16 -9 17 -13 5 -36 -10 -19 -12 -42 -6 -93 12 -106 13 -205 3 -241 -6 -21 -6
-37 0 -45 5 -7 11 -95 12 -197 5 -270 3 -337 -10 -369 -9 -22 -9 -35 0 -50 7
-13 7 -27 2 -38 -8 -15 -9 -54 -2 -73 11 -30 -8 -212 -24 -223 -7 -6 -4 -7 6
-3 10 3 20 1 23 -4 3 -6 5 -58 4 -117 -2 -161 -3 -181 -11 -189 -11 -10 -10
-28 3 -61 14 -36 13 -270 0 -306 -8 -19 -8 -34 -1 -47 12 -23 13 -67 1 -74
-15 -10 -19 -70 -6 -107 18 -50 16 -131 -3 -145 -14 -10 -13 -12 5 -18 15 -5
19 -13 16 -26 -3 -11 -11 -20 -17 -20 -15 0 -11 -121 3 -130 5 -3 7 -23 5 -45
-2 -22 -3 -51 -3 -65 0 -14 0 -31 0 -37 -1 -7 -1 -23 0 -35 6 -116 4 -388 -3
-407 -5 -14 -5 -28 1 -35 11 -13 11 -56 -1 -56 -10 0 -7 -100 4 -106 12 -7 10
-42 -4 -81 -10 -27 -10 -36 0 -42 8 -5 9 -16 2 -40 -6 -21 -6 -40 0 -51 5 -9
9 -79 10 -156 0 -76 3 -177 6 -224 3 -47 6 -107 7 -135 1 -27 6 -56 10 -63 5
-6 5 -17 2 -22 -3 -5 1 -10 11 -10 14 0 16 -8 11 -57 -3 -32 -3 -52 0 -44 6
14 48 -93 52 -131 1 -9 42 -23 59 -20 12 3 16 -15 13 -50 -1 -9 7 -22 19 -28
11 -6 18 -15 15 -20 -3 -5 -1 -11 5 -15 5 -3 10 2 10 13 0 10 6 19 14 19 7 0
11 -7 9 -16 -4 -18 53 -55 69 -44 6 3 8 1 4 -5 -10 -17 23 -43 48 -37 15 5 17
4 7 -3 -11 -8 -9 -11 8 -17 12 -3 19 -11 16 -16 -3 -5 0 -7 7 -4 7 3 27 1 43
-4 29 -9 29 -9 5 -11 -19 -1 -13 -6 25 -18 28 -9 57 -21 65 -27 8 -5 25 -8 36
-7 12 2 30 -5 39 -15 13 -13 20 -14 23 -5 6 18 22 15 23 -5 0 -11 3 -13 6 -5
2 6 8 10 11 8 8 -5 234 -19 275 -18 15 1 27 -3 27 -8 0 -5 12 -9 28 -8 15 1
50 -2 78 -5 48 -7 52 -6 58 15 5 18 8 20 15 9 5 -8 16 -11 30 -6 12 4 28 2 35
-4 10 -8 22 -8 41 -1 20 7 31 7 41 -1 20 -16 92 -18 139 -4 51 16 844 25 960
11 80 -10 137 -9 143 1 4 6 19 9 34 6 19 -4 25 -9 21 -21 -4 -8 -2 -13 3 -10
25 14 52 21 87 24 33 2 36 0 25 -13 -11 -14 -10 -15 12 -8 14 4 38 13 54 21
16 7 33 11 38 8 5 -3 301 -6 658 -6 495 0 648 -3 644 -12 -3 -8 16 -10 73 -8
43 3 80 8 83 12 10 14 75 18 85 4 13 -17 101 -20 138 -5 23 9 34 8 57 -6 25
-15 32 -15 57 -3 23 11 168 15 788 17 963 5 1516 3 1527 -3 18 -11 141 -5 149
8 6 10 15 7 38 -10 35 -26 41 -27 41 -8 0 14 70 16 102 2 9 -4 22 -4 29 0 7 4
30 9 53 11 38 4 40 3 22 -12 -19 -14 -19 -15 7 -15 15 0 30 7 33 15 8 19 90
21 96 3 5 -15 141 -16 160 -1 7 6 32 13 56 16 32 4 44 1 53 -11 7 -13 12 -14
15 -4 3 6 19 12 35 12 18 0 28 4 24 10 -3 6 3 10 13 10 11 0 22 -6 25 -14 6
-15 77 -19 77 -4 0 4 7 5 15 2 9 -4 15 0 15 9 0 15 57 30 65 17 2 -4 19 -4 37
-2 28 4 30 6 13 13 -15 6 -10 8 20 9 50 1 88 25 65 41 -11 8 -7 9 18 6 17 -2
32 0 32 5 0 5 10 6 23 3 22 -7 22 -7 2 10 -13 11 -15 15 -4 12 23 -7 82 20 73
35 -5 8 -2 9 11 4 14 -5 16 -4 7 7 -12 14 -10 16 43 20 16 1 23 7 20 15 -6 15
5 43 14 38 4 -3 13 -1 21 5 13 7 13 9 1 9 -11 0 -8 6 7 20 12 12 22 27 22 34
0 8 7 19 15 26 16 13 21 1 6 -15 -13 -15 -24 -68 -11 -60 5 3 10 14 10 24 0
30 22 66 58 94 20 15 30 27 23 27 -15 0 -5 37 15 58 16 16 19 36 4 27 -7 -4
-8 3 -4 21 5 18 3 25 -4 20 -7 -4 -10 2 -9 14 1 12 7 18 13 16 8 -3 15 10 19
35 5 29 11 39 21 35 11 -4 14 5 14 39 0 25 -5 45 -11 45 -6 0 -7 8 -2 23 10
28 11 64 12 393 1 149 6 286 11 304 6 19 6 38 1 44 -10 13 -11 196 -2 196 9 0
6 113 -2 127 -3 5 -6 354 -5 774 1 420 0 809 0 864 -1 55 -1 168 -1 250 1 83
1 188 1 235 -1 47 1 133 3 193 2 66 -1 107 -7 107 -5 0 -3 7 6 15 11 11 13 25
8 48 -4 18 -6 187 -5 377 2 475 1 597 -3 655 -3 28 -6 84 -8 125 -2 41 -9 109
-16 150 -6 41 -13 82 -14 90 -9 59 -30 140 -37 140 -5 0 -9 5 -9 11 0 5 4 8 9
5 5 -4 7 3 4 15 -4 14 -8 17 -13 9 -5 -8 -10 -1 -15 18 -3 17 -13 36 -21 43
-8 7 -12 20 -9 30 4 11 2 19 -4 19 -6 0 -11 9 -11 20 0 11 -4 20 -9 20 -4 0
-7 -12 -5 -27 4 -26 3 -26 -8 4 -7 18 -21 42 -30 53 -10 11 -24 36 -32 55 -8
19 -20 35 -27 35 -7 0 -5 -8 6 -20 10 -11 13 -20 8 -20 -6 0 -16 7 -23 15 -7
9 -19 14 -25 11 -21 -8 -35 15 -24 37 10 18 8 19 -34 16 -38 -3 -43 -2 -34 10
10 12 8 12 -13 1 -23 -12 -24 -12 -11 3 16 20 1 23 -18 5 -11 -11 -13 -10 -7
0 5 7 -1 16 -16 22 -22 10 -21 10 5 5 15 -3 27 -4 27 -1 0 5 -97 37 -130 42
-14 3 -40 9 -57 15 -18 6 -45 10 -60 9 -63 -4 -124 1 -118 9 9 15 -13 23 -78
27 -38 2 -66 -1 -76 -9 -12 -10 -13 -9 -6 2 6 11 0 12 -38 7 -25 -4 -48 -3
-51 2 -8 13 -133 14 -157 1 -12 -6 -25 -7 -32 -1 -7 4 -23 7 -37 6 -96 -10
-137 -11 -147 -2 -7 6 -18 6 -30 0 -21 -11 -180 -9 -206 2 -10 5 -24 3 -34 -5
-13 -11 -17 -11 -20 -1 -5 14 -39 16 -48 2 -4 -6 -89 -10 -221 -10 -181 0
-219 3 -239 16 -18 12 -29 13 -38 6 -6 -6 -23 -10 -37 -10 -14 0 -63 -3 -109
-5 -62 -4 -88 -1 -98 8 -13 13 -53 9 -53 -5 0 -4 -52 -7 -115 -8 -64 0 -112 4
-109 9 3 5 -20 10 -50 10 -31 1 -62 2 -68 4 -7 1 -22 -3 -33 -10 -22 -12 -70
-13 -97 -1 -10 5 -37 5 -60 2 -72 -10 -188 -13 -193 -5 -3 4 -31 5 -63 3 -151
-12 -177 -11 -197 2 -26 18 -51 18 -59 -1 -6 -17 -51 -20 -61 -5 -4 6 -13 7
-23 1 -10 -5 -100 -10 -202 -12 -208 -3 -177 -3 -560 0 -337 3 -457 3 -645 2
-430 -2 -711 0 -794 4 -59 4 -98 1 -106 -5 -10 -8 -16 -7 -23 6 -9 16 -15 17
-65 5 -32 -8 -60 -10 -68 -5 -8 5 -30 10 -49 11 -19 1 -46 5 -59 8 -18 5 -22
3 -18 -9z m-1773 -64 c0 -5 -7 -9 -15 -9 -8 0 -15 4 -15 9 0 4 7 8 15 8 8 0
15 -4 15 -8z m7410 -1 c0 -5 -9 -7 -20 -4 -11 3 -20 7 -20 9 0 2 9 4 20 4 11
0 20 -4 20 -9z m-7640 -91 c-8 -5 -19 -10 -25 -10 -5 0 -3 5 5 10 8 5 20 10
25 10 6 0 3 -5 -5 -10z m8025 -100 c3 -6 -1 -7 -9 -4 -18 7 -21 14 -7 14 6 0
13 -4 16 -10z m111 -187 c2 -27 1 -27 -14 3 -8 15 -8 21 1 21 7 0 13 -11 13
-24z m51 -140 c-3 -10 -5 -4 -5 12 0 17 2 24 5 18 2 -7 2 -21 0 -30z m-5928
-208 c261 -50 446 -176 541 -368 65 -132 70 -171 70 -594 l0 -373 -350 0 -350
0 0 332 0 331 -26 45 c-29 49 -85 81 -143 82 -50 0 -112 -34 -141 -77 l-25
-37 0 -985 c0 -1097 -5 -1021 67 -1073 27 -18 46 -23 99 -23 56 0 71 4 101 27
68 52 68 55 68 457 l0 361 350 0 350 0 1 -242 c1 -134 0 -272 -1 -308 -3 -93
-33 -181 -83 -242 -23 -29 -202 -182 -397 -340 l-355 -289 -185 4 c-166 3
-193 6 -263 29 -180 60 -320 179 -400 339 -81 163 -78 108 -75 1324 3 988 5
1075 21 1129 42 140 113 251 215 332 128 102 262 148 522 178 69 8 307 -4 389
-19z m4479 -302 l-3 -328 -235 -2 c-129 -2 -238 -3 -242 -3 -5 0 -8 -603 -8
-1340 l0 -1340 -102 0 -103 1 -287 240 -288 241 0 1099 c0 872 -3 1099 -12
1100 -7 0 -114 1 -238 2 l-225 2 -3 328 -2 327 875 0 875 0 -2 -327z m-2044
-185 c65 -277 179 -759 253 -1073 215 -910 242 -1029 240 -1031 -1 -2 -249
204 -550 456 l-548 460 -242 -196 c-133 -107 -363 -293 -510 -412 -340 -275
-307 -253 -295 -200 24 108 212 953 368 1653 94 424 176 787 181 808 l10 37
487 0 487 0 119 -502z m-326 -1640 c152 -128 345 -289 427 -358 161 -136 559
-469 823 -689 l163 -136 -861 -3 c-473 -1 -1248 -1 -1722 0 l-863 3 155 125
c85 68 193 155 240 193 47 38 171 138 275 223 105 84 253 204 330 266 77 63
246 199 375 303 129 104 267 215 305 247 39 32 71 58 73 58 1 0 127 -104 280
-232z m-2997 -1663 c90 -46 112 -89 116 -227 1 -59 0 -114 -3 -123 -5 -13 -23
-15 -100 -14 l-94 1 0 94 c0 81 -3 97 -20 114 -11 11 -24 20 -30 20 -5 0 -19
-9 -30 -20 -19 -19 -20 -33 -20 -292 0 -239 2 -274 17 -290 20 -22 41 -23 65
-1 15 14 18 32 18 120 l0 103 101 0 101 0 -4 -100 c-4 -116 0 -108 -146 -227
l-92 -75 -69 4 c-85 4 -139 36 -170 100 -20 42 -21 59 -21 364 0 312 1 321 23
364 27 53 59 78 124 96 62 18 189 12 234 -11z m594 13 c7 -18 173 -723 171
-725 -1 -1 -71 56 -155 127 l-154 129 -146 -119 c-80 -65 -147 -117 -148 -116
-3 3 142 660 153 699 5 15 20 17 140 17 98 0 136 -3 139 -12z m605 -83 l0 -95
-65 0 -65 0 0 -375 0 -375 -34 0 c-27 0 -48 13 -114 70 l-80 70 1 305 2 305
-67 0 -68 0 0 95 0 95 245 0 245 0 0 -95z m510 5 l0 -90 -120 0 -120 0 0 -95
0 -95 105 0 105 0 0 -90 0 -90 -105 0 -105 0 0 -105 0 -105 125 0 125 0 0 -95
0 -96 -230 2 -230 1 0 474 0 474 225 0 225 0 0 -90z m538 61 c62 -36 92 -101
92 -201 0 -43 -5 -92 -11 -111 -14 -40 -66 -99 -88 -99 -9 -1 1 -10 21 -21 65
-34 72 -59 78 -279 3 -124 1 -198 -5 -202 -15 -11 -168 -6 -182 5 -10 7 -13
54 -13 173 0 205 -7 224 -90 229 l-25 1 -5 -205 -5 -206 -96 -2 -97 -1 -6 36
c-3 20 -6 234 -6 475 l0 439 198 -4 c187 -3 199 -4 240 -27z m585 18 c56 -15
103 -62 122 -120 13 -39 16 -78 13 -177 -3 -113 -6 -132 -28 -170 -39 -69 -77
-86 -197 -90 l-103 -4 0 -188 0 -187 -100 0 -100 0 0 474 0 473 178 0 c97 0
194 -5 215 -11z m415 -461 l-3 -473 -102 -2 -103 -1 0 474 0 474 105 0 105 0
-2 -472z m322 92 l0 -380 105 0 105 0 0 -94 0 -94 -210 -1 -210 -1 0 475 0
475 105 0 105 0 0 -380z m470 0 l0 -380 104 0 c74 0 105 -4 108 -12 4 -11 4
-150 0 -170 -2 -9 -383 -11 -406 -2 -14 5 -16 57 -16 475 l0 469 105 0 105 0
0 -380z m739 8 c35 -205 71 -417 81 -470 12 -69 14 -98 6 -101 -6 -2 -52 -5
-103 -6 l-91 -3 -7 59 c-13 122 -7 114 -88 111 l-72 -3 -9 -75 c-4 -41 -13
-78 -20 -82 -11 -8 -184 -3 -192 5 -2 2 13 107 35 233 22 126 56 324 76 439
19 116 38 222 41 238 l6 27 137 0 136 0 64 -372z m558 361 c56 -15 104 -61
121 -116 15 -49 16 -165 2 -215 -11 -39 -64 -98 -89 -98 -9 -1 1 -10 21 -21
65 -34 72 -60 78 -269 4 -102 10 -193 14 -202 7 -16 -1 -17 -93 -15 -78 2
-104 6 -111 17 -5 8 -10 90 -10 181 0 194 -6 210 -78 214 l-42 2 0 -209 0
-209 -102 3 -103 3 -3 460 c-1 252 0 465 2 472 7 17 327 18 393 2z m-4796
-600 c104 -86 363 -302 377 -316 11 -11 -79 -13 -469 -13 -408 0 -481 2 -469
14 8 7 98 80 200 162 102 81 205 165 230 185 25 22 49 35 55 30 5 -4 40 -32
76 -62z m6229 -765 c0 -8 -19 -13 -24 -6 -3 5 1 9 9 9 8 0 15 -2 15 -3z
m-8387 -59 c-3 -9 -8 -14 -10 -11 -3 3 -2 9 2 15 9 16 15 13 8 -4z"/>
<path d="M5106 6503 c-32 -164 -73 -371 -91 -461 -18 -89 -29 -164 -26 -167 4
-2 87 -4 184 -4 129 0 177 4 177 12 0 26 -175 917 -181 917 -3 0 -32 -134 -63
-297z"/>
<path d="M2881 3314 c-12 -64 -20 -118 -18 -121 3 -2 25 -3 49 -1 l45 3 -22
112 c-12 62 -24 115 -27 118 -2 3 -15 -47 -27 -111z"/>
<path d="M4475 3452 c-3 -3 -5 -49 -5 -103 0 -94 1 -97 24 -103 36 -9 75 10
87 41 15 39 6 130 -14 151 -16 15 -81 25 -92 14z"/>
<path d="M5103 3453 c-10 -3 -13 -37 -13 -119 l0 -114 50 0 c40 0 51 4 61 21
13 26 9 184 -6 197 -12 11 -75 21 -92 15z"/>
<path d="M7002 3227 c-12 -106 -22 -195 -22 -199 0 -5 23 -8 50 -8 l50 0 -5
38 c-3 20 -14 109 -25 196 -11 87 -21 160 -22 162 -2 1 -14 -84 -26 -189z"/>
<path d="M7600 3357 c0 -96 2 -105 20 -110 33 -8 74 8 87 34 7 13 13 47 13 75
0 65 -20 91 -77 100 l-43 7 0 -106z"/>
<path d="M9025 7990 c-8 -13 9 -20 24 -11 10 6 9 10 -3 14 -8 3 -18 2 -21 -3z"/>
<path d="M965 7979 c-11 -16 -1 -19 13 -3 7 8 8 14 3 14 -5 0 -13 -5 -16 -11z"/>
<path d="M736 7705 c-3 -8 -1 -15 4 -15 6 0 10 7 10 15 0 8 -2 15 -4 15 -2 0
-6 -7 -10 -15z"/>
<path d="M9055 2020 c-3 -5 -1 -10 4 -10 6 0 11 5 11 10 0 6 -2 10 -4 10 -3 0
-8 -4 -11 -10z"/>
</g>
</svg>
