<?xml version="1.0" encoding="UTF-8" standalone="no"?>
<svg
   xmlns:dc="http://purl.org/dc/elements/1.1/"
   xmlns:cc="http://creativecommons.org/ns#"
   xmlns:rdf="http://www.w3.org/1999/02/22-rdf-syntax-ns#"
   xmlns:svg="http://www.w3.org/2000/svg"
   xmlns="http://www.w3.org/2000/svg"
   viewBox="0 0 1122.52 793.70667"
   height="793.70667"
   width="1122.52"
   xml:space="preserve"
   id="svg2"
   version="1.1"><metadata
     id="metadata8"><rdf:RDF><cc:Work
         rdf:about=""><dc:format>image/svg+xml</dc:format><dc:type
           rdf:resource="http://purl.org/dc/dcmitype/StillImage" /></cc:Work></rdf:RDF></metadata><defs
     id="defs6"><clipPath
       id="clipPath20"
       clipPathUnits="userSpaceOnUse"><path
         id="path18"
         d="M 0,595.28 H 841.89 V 0 H 0 Z" /></clipPath><clipPath
       id="clipPath60"
       clipPathUnits="userSpaceOnUse"><path
         id="path58"
         d="M 0,595.28 H 841.89 V 0 H 0 Z" /></clipPath></defs><g
     transform="matrix(1.3333333,0,0,-1.3333333,0,793.70667)"
     id="g10"><path
       id="path12"
       style="fill:#ee2624;fill-opacity:1;fill-rule:nonzero;stroke:none"
       d="M 0,0 H 841.89 V 595.281 H 0 Z" /><g
       id="g14"><g
         clip-path="url(#clipPath20)"
         id="g16"><g
           transform="translate(524.3105,498.8789)"
           id="g22"><path
             id="path24"
             style="fill:#ffffff;fill-opacity:1;fill-rule:evenodd;stroke:none"
             d="m 0,0 c -5.879,-3.639 -12.007,-10.492 -7.299,-18.103 7.133,-11.528 22.094,2.995 25.045,-1.775 1.3,-2.101 -0.181,-3.804 -1.908,-4.872 -1.079,-0.669 -2.261,-0.929 -3.313,-0.795 -1.141,0.157 -2.136,0.799 -1.945,0.833 l -10.682,-6.609 c 4.623,-6.48 13.042,-4.175 19.513,-0.171 10.359,6.409 12.612,13.617 8.784,19.807 -6.887,11.129 -23.021,-2.703 -25.588,1.442 -0.912,1.476 -0.059,2.868 1.883,4.071 0.864,0.532 1.814,0.808 2.724,0.663 C 8.125,-5.653 8.921,-6.1 8.932,-6.305 L 19.127,0.121 51.42,0.094 v -112.69 H -90.932 c -23.179,0 -41.982,-18.9 -41.982,-42.076 0,-23.183 18.792,-41.973 41.972,-41.973 H 51.42 v -112.447 l -154.418,-0.353 c -85.477,0 -154.772,69.297 -154.772,154.773 0,85.473 69.295,154.766 154.772,154.766 z" /></g><g
           transform="translate(362.8115,356.5913)"
           id="g26"><path
             id="path28"
             style="fill:#ee2624;fill-opacity:1;fill-rule:evenodd;stroke:none"
             d="m 0,0 -10.411,-6.444 -2.654,2.089 c -0.865,-4.127 -2.375,-6.376 -7.013,-9.248 -6.15,-3.803 -12.601,-2.298 -17.872,6.216 l -11.208,18.115 11.219,6.942 9.946,-16.069 c 2.529,-4.088 4.685,-4.559 7.381,-2.892 3.238,2.003 2.681,5.192 -0.165,9.793 l -8.855,14.307 11.221,6.944 z" /></g><g
           transform="translate(349.4712,389.4834)"
           id="g30"><path
             id="path32"
             style="fill:#ee2624;fill-opacity:1;fill-rule:evenodd;stroke:none"
             d="m 0,0 10.303,6.376 2.69,-2.142 c -0.005,3.139 2.465,6.449 5.736,8.534 5.027,3.208 9.283,2.604 12.597,0.259 0.215,5.08 2.237,8.923 6.39,11.493 8.254,5.107 13.865,1.825 18.891,-6.294 L 67.5,0.624 56.281,-6.321 46.896,8.84 c -2.704,4.374 -4.602,5.633 -7.57,3.796 C 36.036,10.6 37.251,7.19 39.464,3.614 l 9.1,-14.707 -11.219,-6.942 -9.381,15.159 c -2.705,4.374 -4.605,5.631 -7.571,3.797 -3.29,-2.037 -2.077,-5.447 0.138,-9.024 l 9.102,-14.706 -11.22,-6.943 z" /></g><g
           transform="translate(476.6855,427.0625)"
           id="g34"><path
             id="path36"
             style="fill:#ee2624;fill-opacity:1;fill-rule:evenodd;stroke:none"
             d="M 0,0 -18.411,29.754 -7.191,36.696 11.221,6.943 Z" /></g><g
           transform="translate(450.7207,469.0229)"
           id="g38"><path
             id="path40"
             style="fill:#ee2624;fill-opacity:1;fill-rule:evenodd;stroke:none"
             d="m 0,0 11.219,6.944 5.2,-8.403 -11.22,-6.945 z" /></g><g
           transform="translate(475.4707,467.457)"
           id="g42"><path
             id="path44"
             style="fill:#ee2624;fill-opacity:1;fill-rule:evenodd;stroke:none"
             d="m 0,0 10.247,6.341 3.285,-2.225 c 0.249,3.075 1.473,6.349 5.735,8.988 7.445,4.604 13.797,2.175 18.857,-6.001 l 11.033,-17.828 -11.22,-6.945 -9.732,15.728 c -1.828,2.953 -4.2,5.097 -7.383,3.129 -3.452,-2.138 -2.927,-5.032 -0.573,-8.836 l 9.381,-15.162 -11.218,-6.944 z" /></g><g
           transform="translate(403.394,422.8545)"
           id="g46"><path
             id="path48"
             style="fill:#ee2624;fill-opacity:1;fill-rule:evenodd;stroke:none"
             d="m 0,0 10.303,6.374 2.688,-2.142 c -0.002,3.14 2.467,6.449 5.74,8.536 5.026,3.206 9.28,2.602 12.597,0.257 0.214,5.079 2.237,8.925 6.391,11.492 8.252,5.109 13.864,1.828 18.888,-6.293 L 67.5,0.624 56.28,-6.321 46.898,8.84 c -2.704,4.372 -4.605,5.631 -7.57,3.796 -3.291,-2.037 -2.077,-5.448 0.137,-9.022 l 9.101,-14.707 -11.22,-6.945 -9.381,15.162 c -2.707,4.372 -4.605,5.631 -7.573,3.795 -3.29,-2.037 -2.073,-5.445 0.138,-9.022 l 9.103,-14.708 -11.22,-6.945 z" /></g><g
           transform="translate(313.061,325.8032)"
           id="g50"><path
             id="path52"
             style="fill:#ee2624;fill-opacity:1;fill-rule:evenodd;stroke:none"
             d="m 0,0 c -12.087,-7.481 -27.952,-3.748 -35.432,8.339 -7.483,12.089 -3.746,27.953 8.341,35.433 l 14.594,9.026 7.072,-11.427 -12.619,-7.809 c -5.774,-3.574 -7.56,-11.154 -3.985,-16.927 3.573,-5.774 11.153,-7.558 16.927,-3.987 l 12.617,7.81 7.073,-11.429 z" /></g></g></g><g
       id="g54"><g
         clip-path="url(#clipPath60)"
         id="g56"><g
           transform="translate(524.1006,498.8726)"
           id="g62"><path
             id="path64"
             style="fill:#ee2624;fill-opacity:1;fill-rule:evenodd;stroke:none"
             d="m 0,0 v 0 c -5.879,-3.639 -12.007,-10.492 -7.299,-18.103 7.133,-11.528 22.094,2.995 25.045,-1.775 1.3,-2.101 -0.181,-3.804 -1.908,-4.872 -1.079,-0.669 -2.261,-0.929 -3.313,-0.795 -1.141,0.157 -2.136,0.799 -1.945,0.833 l -10.682,-6.609 c 4.623,-6.48 13.042,-4.175 19.513,-0.171 10.359,6.409 12.612,13.617 8.784,19.807 -6.887,11.129 -23.021,-2.703 -25.588,1.442 -0.912,1.476 -0.059,2.868 1.883,4.071 0.864,0.532 1.814,0.808 2.724,0.663 0.911,-0.144 1.707,-0.591 1.718,-0.796 l 10.195,6.426 z" /></g></g></g><text
       id="text68"
       style="font-variant:normal;font-weight:normal;font-stretch:normal;font-size:52px;font-family:'Myriad Pro';-inkscape-font-specification:MyriadPro-Regular;writing-mode:lr-tb;fill:#ffffff;fill-opacity:1;fill-rule:nonzero;stroke:none"
       transform="matrix(1,0,0,-1,582.666,169.667)"><tspan
         id="tspan66"
         y="0"
         x="0">®</tspan></text>
</g></svg>