<?xml version="1.0" encoding="UTF-8" standalone="no"?>
<svg
   xmlns:dc="http://purl.org/dc/elements/1.1/"
   xmlns:cc="http://creativecommons.org/ns#"
   xmlns:rdf="http://www.w3.org/1999/02/22-rdf-syntax-ns#"
   xmlns:svg="http://www.w3.org/2000/svg"
   xmlns="http://www.w3.org/2000/svg"
   viewBox="0 0 1054.8667 200.18668"
   height="200.18668"
   width="1054.8667"
   xml:space="preserve"
   id="svg2"
   version="1.1"><metadata
     id="metadata8"><rdf:RDF><cc:Work
         rdf:about=""><dc:format>image/svg+xml</dc:format><dc:type
           rdf:resource="http://purl.org/dc/dcmitype/StillImage" /></cc:Work></rdf:RDF></metadata><defs
     id="defs6" /><g
     transform="matrix(1.3333333,0,0,-1.3333333,0,200.18667)"
     id="g10"><g
       transform="scale(0.1)"
       id="g12"><path
         id="path14"
         style="fill:#100f0d;fill-opacity:1;fill-rule:nonzero;stroke:none"
         d="m 286.145,1281.59 v -73.38 c 0,-41.57 -29.348,-44.01 -29.348,-44.01 H 122.289 v 156.51 l 124.727,-2.44 c 46.464,0 39.129,-36.68 39.129,-36.68 z m 9.777,158.96 H 2.44922 L 0,1039.47 h 298.367 c 95.379,9.78 107.61,110.05 107.61,110.05 v 185.87 c -24.454,92.94 -110.055,105.16 -110.055,105.16" /><path
         id="path16"
         style="fill:#100f0d;fill-opacity:1;fill-rule:nonzero;stroke:none"
         d="m 3411.65,1281.59 v -73.38 c 0,-41.57 -29.35,-44.01 -29.35,-44.01 h -134.51 v 156.51 l 124.73,-2.44 c 46.46,0 39.13,-36.68 39.13,-36.68 z m 9.78,158.96 h -293.48 l -2.45,-401.08 h 298.37 c 95.38,9.78 107.61,110.05 107.61,110.05 v 185.87 c -24.45,92.94 -110.05,105.16 -110.05,105.16" /><path
         id="path18"
         style="fill:#100f0d;fill-opacity:1;fill-rule:nonzero;stroke:none"
         d="m 626.098,1142.18 c -8.106,0 -14.672,6.57 -14.672,14.68 v 17.12 c 0,8.11 6.566,14.68 14.672,14.68 H 851.09 v 97.81 H 626.098 c -8.106,0 -14.672,6.57 -14.672,14.67 v 17.13 c 0,8.11 6.566,14.67 14.672,14.67 H 851.09 v 114.94 H 628.539 c -141.84,-9.79 -146.738,-132.06 -146.738,-132.06 v -161.41 c 12.23,-105.17 105.164,-122.28 105.164,-122.28 H 851.09 v 110.05 H 626.098" /><path
         id="path20"
         style="fill:#100f0d;fill-opacity:1;fill-rule:nonzero;stroke:none"
         d="m 3986.37,1142.18 c -8.09,0 -14.68,6.57 -14.68,14.68 v 17.12 c 0,8.11 6.59,14.68 14.68,14.68 h 225 v 97.81 h -225 c -8.09,0 -14.68,6.57 -14.68,14.67 v 17.13 c 0,8.11 6.59,14.67 14.68,14.67 h 225 v 114.94 h -222.55 c -141.84,-9.79 -146.74,-132.06 -146.74,-132.06 v -161.41 c 12.24,-105.17 105.17,-122.28 105.17,-122.28 h 264.12 v 110.05 h -225" /><path
         id="path22"
         style="fill:#100f0d;fill-opacity:1;fill-rule:nonzero;stroke:none"
         d="m 4881.47,1142.18 c -8.1,0 -14.68,6.57 -14.68,14.68 v 17.12 c 0,8.11 6.58,14.68 14.68,14.68 h 225 v 97.81 h -225 c -8.1,0 -14.68,6.57 -14.68,14.67 v 17.13 c 0,8.11 6.58,14.67 14.68,14.67 h 225 v 114.94 h -222.55 c -141.85,-9.79 -146.74,-132.06 -146.74,-132.06 v -161.41 c 12.22,-105.17 105.17,-122.28 105.17,-122.28 h 264.12 v 110.05 h -225" /><path
         id="path24"
         style="fill:#100f0d;fill-opacity:1;fill-rule:nonzero;stroke:none"
         d="M 902.441,1447.89 H 1232.6 v -127.18 h -80.71 c 0,0 -26.89,4.9 -26.89,-34.23 V 1027.24 H 995.375 v 256.79 c 0,0 7.345,31.8 -24.453,31.8 l -67.254,-0.02 -1.227,132.08" /><path
         id="path26"
         style="fill:#100f0d;fill-opacity:1;fill-rule:nonzero;stroke:none"
         d="m 2059.21,1175.19 c 0,-16.21 -13.14,-29.35 -29.34,-29.35 h -101.5 c -16.21,0 -29.35,13.14 -29.35,29.35 v 99.04 c 0,16.21 13.14,29.35 29.35,29.35 h 101.5 c 16.2,0 29.34,-13.14 29.34,-29.35 z m 1.22,259.24 H 1897.1 c -72.94,0 -132.06,-59.12 -132.06,-132.06 v -150.41 c 0,-72.94 59.12,-132.07 132.06,-132.07 h 163.33 c 72.94,0 132.07,59.13 132.07,132.07 v 150.41 c 0,72.94 -59.13,132.06 -132.07,132.06" /><path
         id="path28"
         style="fill:#100f0d;fill-opacity:1;fill-rule:nonzero;stroke:none"
         d="m 3489.74,414.77 c 0,-7.301 -5.93,-13.219 -13.23,-13.219 h -45.76 c -7.3,0 -13.22,5.918 -13.22,13.219 v 44.66 c 0,7.308 5.92,13.218 13.22,13.218 h 45.76 c 7.3,0 13.23,-5.91 13.23,-13.218 z m 0.55,116.871 h -73.63 c -32.87,0 -59.53,-26.664 -59.53,-59.532 v -67.8 c 0,-32.891 26.66,-59.539 59.53,-59.539 h 73.63 c 32.87,0 59.52,26.648 59.52,59.539 v 67.8 c 0,32.868 -26.65,59.532 -59.52,59.532" /><path
         id="path30"
         style="fill:#100f0d;fill-opacity:1;fill-rule:nonzero;stroke:none"
         d="m 4212.41,414.77 c 0,-7.301 -5.92,-13.219 -13.22,-13.219 h -45.77 c -7.28,0 -13.2,5.918 -13.2,13.219 v 44.66 c 0,7.308 5.92,13.218 13.2,13.218 h 45.77 c 7.3,0 13.22,-5.91 13.22,-13.218 z m 0.55,116.871 h -73.62 c -32.87,0 -59.52,-26.664 -59.52,-59.532 v -67.8 c 0,-32.891 26.65,-59.539 59.52,-59.539 h 73.62 c 32.87,0 59.54,26.648 59.54,59.539 v 67.8 c 0,32.868 -26.67,59.532 -59.54,59.532" /><path
         id="path32"
         style="fill:#100f0d;fill-opacity:1;fill-rule:nonzero;stroke:none"
         d="m 5177.2,414.77 c 0,-7.301 -5.92,-13.219 -13.21,-13.219 h -45.76 c -7.3,0 -13.22,5.918 -13.22,13.219 v 44.66 c 0,7.308 5.92,13.218 13.22,13.218 h 45.76 c 7.29,0 13.21,-5.91 13.21,-13.218 z m 0.57,116.871 h -73.63 c -32.88,0 -59.53,-26.664 -59.53,-59.532 v -67.8 c 0,-32.891 26.65,-59.539 59.53,-59.539 h 73.63 c 32.87,0 59.52,26.648 59.52,59.539 v 67.8 c 0,32.868 -26.65,59.532 -59.52,59.532" /><path
         id="path34"
         style="fill:#100f0d;fill-opacity:1;fill-rule:nonzero;stroke:none"
         d="m 2396.02,1024.79 h -125.26 v 405.97 h 125.26 v -405.97" /><path
         id="path36"
         style="fill:#100f0d;fill-opacity:1;fill-rule:nonzero;stroke:none"
         d="m 4986.62,351.879 h -53.28 v 172.648 h 53.28 V 351.879" /><path
         id="path38"
         style="fill:#100f0d;fill-opacity:1;fill-rule:nonzero;stroke:none"
         d="m 3760.67,1024.79 h -125.26 v 405.97 h 125.26 v -405.97" /><path
         id="path40"
         style="fill:#100f0d;fill-opacity:1;fill-rule:nonzero;stroke:none"
         d="M 2780.67,1418.52 H 2455.41 V 1304.8 h 94.15 v -280.01 h 125.26 v 280.01 h 105.85 v 113.72" /><path
         id="path42"
         style="fill:#100f0d;fill-opacity:1;fill-rule:nonzero;stroke:none"
         d="M 4907.51,527.477 H 4760 V 475.91 h 42.71 V 348.93 h 56.81 v 126.98 h 47.99 v 51.567" /><path
         id="path44"
         style="fill:#100f0d;fill-opacity:1;fill-rule:nonzero;stroke:none"
         d="m 1561.53,1285.25 c 0,-16.21 -13.14,-29.35 -29.35,-29.35 h -95.37 c -16.21,0 -29.35,13.14 -29.35,29.35 v 8.55 c 0,16.21 13.14,29.35 29.35,29.35 h 95.37 c 16.21,0 29.35,-13.14 29.35,-29.35 z m 68.48,-81.94 c 0,0 -13.45,9.78 2.45,19.57 15.89,9.78 52.57,31.8 61.13,79.48 8.57,47.69 -8.41,128.39 -95.37,145.52 l -314.26,3.67 V 1026 h 130.62 l -1,122.29 h 110.05 c 0,0 44.02,4.89 44.02,-33.02 V 1026 h 122.28 c 0,0 35.47,149.19 -59.92,177.31" /><path
         id="path46"
         style="fill:#100f0d;fill-opacity:1;fill-rule:nonzero;stroke:none"
         d="m 3733.16,459.539 c 0,-7.34 -5.96,-13.309 -13.31,-13.309 h -43.28 c -7.36,0 -13.31,5.969 -13.31,13.309 v 3.891 c 0,7.351 5.95,13.308 13.31,13.308 h 43.28 c 7.35,0 13.31,-5.957 13.31,-13.308 z m 31.08,-37.187 c 0,0 -6.11,4.437 1.11,8.886 7.2,4.461 23.85,14.434 27.73,36.071 3.89,21.632 -3.82,58.238 -43.28,66.019 l -142.58,1.66 V 341.922 h 59.26 l -0.45,55.469 h 49.93 c 0,0 19.98,2.23 19.98,-14.961 v -40.508 h 55.49 c 0,0 16.09,67.699 -27.19,80.43" /><path
         id="path48"
         style="fill:#100f0d;fill-opacity:1;fill-rule:nonzero;stroke:none"
         d="m 4459.51,459.539 c 0,-7.34 -5.96,-13.309 -13.31,-13.309 h -43.28 c -7.35,0 -13.31,5.969 -13.31,13.309 v 3.891 c 0,7.351 5.96,13.308 13.31,13.308 h 43.28 c 7.35,0 13.31,-5.957 13.31,-13.308 z m 31.07,-37.187 c 0,0 -6.1,4.437 1.11,8.886 7.21,4.461 23.85,14.434 27.75,36.071 3.87,21.632 -3.83,58.238 -43.27,66.019 l -142.6,1.66 V 341.922 h 59.25 l -0.44,55.469 h 49.94 c 0,0 19.97,2.23 19.97,-14.961 v -40.508 h 55.49 c 0,0 16.09,67.699 -27.2,80.43" /><path
         id="path50"
         style="fill:#100f0d;fill-opacity:1;fill-rule:nonzero;stroke:none"
         d="m 4647.29,1426.18 v -107.3 h -220.11 c 0,0 -23.85,-18.34 0,-47.69 h 150.41 c 0,0 84.38,-0.92 84.38,-71.53 V 1078.6 c 0,0 -5.51,-51.36 -75.21,-51.36 h -300.81 v 99.05 h 238.45 c 0,0 31.18,36.68 0,51.35 h -168.75 c 0,0 -45.86,3.67 -62.36,58.7 v 104.55 c 0,0 1.83,73.36 71.53,86.21 l 282.47,-0.92" /><path
         id="path52"
         style="fill:#100f0d;fill-opacity:1;fill-rule:nonzero;stroke:none"
         d="M 5319.22,1159.31 V 1443 h -127.17 v -410.86 h 303.28 v 127.17 h -176.11" /><path
         id="path54"
         style="fill:#ed1c24;fill-opacity:1;fill-rule:nonzero;stroke:none"
         d="M 6321.93,728.863 H 22.0117 V 846.254 H 6321.93 V 728.863" /><path
         id="path56"
         style="fill:#231f20;fill-opacity:1;fill-rule:nonzero;stroke:none"
         d="M 7582.2,277.859 C 7473.02,179.629 7329.93,119.84 7173.01,119.84 c -342.39,0 -619.95,283.621 -619.95,633.476 0,76.7 13.52,150.114 38.01,218.11 l 84.11,-117.766 c -6.24,-32.472 -9.63,-65.996 -9.63,-100.344 0,-286.367 227.21,-518.527 507.46,-518.527 125.79,0 240.79,46.891 329.42,124.359 l -81.68,83.223 c -67.58,-56.281 -153.76,-90.133 -247.74,-90.133 -216.77,0 -392.52,179.567 -392.52,401.078 0,1.45 0.18,2.844 0.19,4.286 h 333.63 l -246.99,246.988 0.71,0.97 -81.69,83.25 -1.44,-1.8 -80.5,80.49 2.16,2.61 -77.26,78.71 c -0.98,-1.08 -1.9,-2.23 -2.88,-3.32 l -0.23,0.21 -0.53,-1.09 C 6507.79,1112.47 6435.8,937.238 6435.8,744.754 6435.8,333.449 6763.66,0 7168.13,0 c 190.74,0 364.32,74.2813 494.62,195.801 l -80.55,82.058" /><path
         id="path58"
         style="fill:#ed1c24;fill-opacity:1;fill-rule:nonzero;stroke:none"
         d="M 7502.43,359.148 C 7413.8,281.68 7298.8,234.789 7173.01,234.789 c -280.25,0 -507.46,232.16 -507.46,518.527 0,0 -0.97,55.563 11.25,118.61 h 166.08 l -226.56,235.094 c 0,0 -129.46,-103.68 -150.09,-153.161 -15.31,-36.687 -18.96,-83.152 -18.96,-83.152 l 116.72,1.219 c -7.16,-38.418 -10.93,-78.055 -10.93,-118.61 0,-349.855 277.56,-633.476 619.95,-633.476 156.92,0 300.01,59.789 409.19,158.019 l -79.77,81.289" /><path
         id="path60"
         style="fill:#231f20;fill-opacity:1;fill-rule:nonzero;stroke:none"
         d="m 6757.96,1217.12 c 107.67,99.89 249.84,161.86 406.73,164.26 342.36,5.25 624.22,-274.1 629.58,-623.907 1.17,-76.703 -11.22,-150.309 -34.67,-218.688 l -85.9,116.477 c 5.75,32.558 8.61,66.14 8.09,100.484 -4.38,286.334 -235.12,514.984 -515.34,510.694 -125.77,-1.93 -240.04,-50.57 -327.47,-129.39 l 82.94,-81.96 c 66.72,57.31 152.36,92.48 246.33,93.92 216.75,3.31 395.22,-173.537 398.62,-395.018 0.02,-1.449 -0.13,-2.859 -0.13,-4.293 l -333.58,-5.109 250.74,-243.176 -0.7,-0.973 82.96,-81.992 1.41,1.801 81.72,-79.219 -2.12,-2.66 78.46,-77.519 c 0.98,1.109 1.87,2.257 2.82,3.378 l 0.25,-0.23 0.49,1.121 c 115.85,133.949 185.15,310.238 182.21,502.715 -6.31,411.234 -339.24,739.634 -743.66,733.444 -190.72,-2.92 -363.15,-79.84 -491.56,-203.35 l 81.78,-80.81" /><path
         id="path62"
         style="fill:#fff200;fill-opacity:1;fill-rule:nonzero;stroke:none"
         d="m 6838.98,1137.05 c 87.43,78.82 201.7,127.46 327.47,129.39 280.22,4.29 510.96,-224.36 515.34,-510.694 0,0 1.83,-55.531 -9.44,-118.773 l -166.04,-2.524 230.13,-231.597 c 0,0 127.62,124.351 154.14,176.628 7.08,13.954 13.74,61.043 13.74,61.043 l -119.15,-1.804 c 6.55,38.523 9.72,78.203 9.1,118.754 -5.36,349.807 -287.22,629.157 -629.58,623.907 -156.89,-2.4 -299.06,-64.37 -406.73,-164.26 l 81.02,-80.07" /><path
         id="path64"
         style="fill:#100f0d;fill-opacity:1;fill-rule:nonzero;stroke:none"
         d="m 3201.01,398.09 c -8.1,0 -14.67,6.57 -14.67,14.68 v 60.531 c 0,8.109 6.57,14.679 14.67,14.679 h 110.97 v 42.797 c -8.45,4.707 -18.05,7.637 -28.43,7.637 h -96.29 c -32.42,0 -58.7,-26.277 -58.7,-58.703 V 401.77 c 0,-32.418 26.28,-58.7 58.7,-58.7 h 96.29 c 10.38,0 19.98,2.918 28.43,7.641 v 47.379 h -110.97" /><path
         id="path66"
         style="fill:#100f0d;fill-opacity:1;fill-rule:nonzero;stroke:none"
         d="m 3969.85,454.102 c 0,-8.122 -6.56,-14.68 -14.68,-14.68 h -35.45 c -8.1,0 -14.67,6.558 -14.67,14.68 v 11.007 c 0,8.102 6.57,14.661 14.67,14.661 h 35.45 c 8.12,0 14.68,-6.559 14.68,-14.661 z m 19.87,83.394 h -132.06 c 0,0 -18.34,-4.59 -18.34,-23.848 V 343.07 h 63.28 v 53.192 h 98.13 c 0,0 34.85,1.828 35.77,38.519 v 46.77 c 0,0 0.92,55.945 -46.78,55.945" /><path
         id="path68"
         style="fill:#100f0d;fill-opacity:1;fill-rule:nonzero;stroke:none"
         d="m 4639.35,426.84 15.89,54.73 15.91,-54.73 z m 60.22,103.324 h -90.8 l -58.09,-193.516 h 57.49 l 23.52,50.442 h 48.62 l 21.09,-50.442 h 66.03 l -67.86,193.516" /><path
         id="path70"
         style="fill:#100f0d;fill-opacity:1;fill-rule:nonzero;stroke:none"
         d="m 5287.43,337.57 h 60.53 v 89.871 l 76.12,-90.793 h 68.79 v 188.008 h -58.7 V 411.852 l -79.79,113.722 h -66.95 V 337.57" /></g></g></svg>