<?xml version="1.0" standalone="no"?>
<!DOCTYPE svg PUBLIC "-//W3C//DTD SVG 20010904//EN"
 "http://www.w3.org/TR/2001/REC-SVG-20010904/DTD/svg10.dtd">
<svg version="1.0" xmlns="http://www.w3.org/2000/svg"
 width="3000.000000pt" height="1875.000000pt" viewBox="0 0 3000.000000 1875.000000"
 preserveAspectRatio="xMidYMid meet">

<g transform="translate(0.000000,1875.000000) scale(0.100000,-0.100000)"
fill="#000000" stroke="none">
<path d="M14230 12207 c-3 -2 -131 -8 -285 -11 -424 -10 -1358 -41 -1555 -51
-52 -3 -205 -10 -340 -15 -135 -6 -281 -13 -325 -15 -44 -3 -235 -12 -425 -20
-190 -9 -498 -24 -685 -35 -187 -11 -385 -22 -440 -25 -410 -23 -1587 -98
-1890 -120 -115 -9 -340 -24 -500 -35 -2404 -163 -3872 -329 -4710 -535 -327
-80 -546 -157 -790 -275 -166 -81 -308 -170 -440 -275 -351 -279 -596 -697
-709 -1208 -36 -163 -49 -290 -49 -482 0 -199 14 -325 53 -490 92 -386 277
-721 545 -990 117 -117 143 -140 245 -213 161 -116 349 -211 620 -314 631
-240 1334 -306 3720 -348 2197 -39 14632 -39 16850 0 2257 39 2980 99 3585
297 261 85 551 219 719 333 247 166 460 397 614 666 184 318 276 670 276 1054
1 300 -45 548 -154 839 -192 514 -522 872 -1048 1135 -382 191 -1005 350
-1812 461 -102 14 -230 32 -285 40 -55 8 -163 22 -240 30 -77 8 -219 24 -315
35 -223 25 -830 83 -1155 110 -137 11 -268 23 -290 25 -112 15 -1390 107
-2430 175 -2257 149 -4377 243 -5765 257 -322 3 -587 3 -590 0z m1165 -82
c333 -11 463 -15 660 -20 110 -3 256 -7 325 -10 69 -3 260 -10 425 -15 165 -5
383 -14 485 -20 102 -6 336 -17 520 -25 418 -19 995 -49 1420 -75 179 -11 375
-22 435 -25 61 -3 202 -12 315 -20 113 -8 284 -19 380 -25 96 -6 270 -17 385
-25 116 -8 278 -19 360 -25 578 -38 784 -52 955 -65 107 -9 254 -20 325 -25
301 -23 658 -51 765 -60 63 -6 196 -17 295 -25 99 -9 295 -27 435 -40 140 -14
282 -27 315 -30 33 -3 98 -10 145 -15 47 -6 204 -24 350 -40 146 -17 310 -37
365 -45 55 -8 154 -21 220 -30 344 -46 849 -141 1110 -209 561 -148 972 -356
1254 -634 113 -112 154 -161 241 -291 177 -266 302 -604 345 -940 16 -123 17
-388 1 -547 -12 -129 -79 -374 -135 -499 -114 -250 -145 -315 -151 -315 -3 0
-13 -15 -22 -32 -29 -62 -142 -203 -247 -312 -165 -169 -331 -288 -536 -386
-123 -58 -361 -152 -470 -185 -49 -14 -101 -31 -115 -36 -14 -5 -63 -18 -110
-29 -626 -149 -1416 -198 -3790 -231 -1183 -16 -12401 -24 -14470 -9 -971 6
-1835 13 -1920 15 -85 2 -281 6 -435 9 -643 14 -767 18 -1110 32 -1249 51
-1728 129 -2314 376 -278 118 -439 220 -627 401 -222 212 -402 494 -497 777
-35 105 -107 435 -108 494 0 17 -2 100 -5 185 -12 336 69 688 236 1021 172
344 397 584 741 791 399 240 961 401 1879 539 173 25 720 94 915 115 605 63
1122 111 1640 150 105 8 278 21 385 30 479 37 603 46 880 65 162 11 392 27
510 35 340 24 1130 74 1415 90 143 8 287 17 320 20 33 3 272 16 530 30 259 14
511 27 560 30 152 8 483 24 625 30 74 3 169 8 210 10 139 8 917 38 1305 50 94
3 262 8 375 11 534 17 735 20 1120 18 228 -2 492 -6 585 -9z"/>
<path d="M13660 11670 c-173 -4 -407 -11 -520 -15 -113 -4 -245 -8 -295 -10
-234 -6 -843 -30 -1030 -40 -49 -3 -236 -12 -415 -20 -179 -8 -368 -17 -420
-20 -52 -3 -135 -7 -185 -10 -560 -31 -821 -46 -875 -50 -36 -3 -182 -12 -325
-20 -143 -9 -316 -20 -385 -25 -69 -6 -226 -17 -350 -25 -124 -8 -313 -21
-420 -29 -107 -9 -262 -20 -345 -26 -82 -6 -193 -15 -245 -20 -52 -6 -167 -14
-255 -20 -88 -6 -171 -12 -185 -15 -14 -2 -63 -7 -110 -10 -47 -3 -130 -10
-185 -15 -55 -6 -248 -24 -430 -40 -181 -17 -391 -37 -465 -45 -74 -8 -263
-29 -420 -45 -337 -37 -743 -86 -820 -100 -30 -5 -107 -16 -170 -25 -179 -23
-492 -80 -650 -116 -355 -83 -679 -256 -918 -491 -231 -227 -375 -473 -461
-787 -45 -162 -56 -257 -55 -466 0 -177 4 -215 27 -326 62 -296 173 -536 351
-758 55 -69 198 -212 276 -277 137 -113 360 -234 555 -299 475 -159 2007 -241
5290 -284 374 -5 687 -9 695 -9 8 -1 1025 -6 2260 -11 4045 -20 8343 6 10160
59 445 14 886 29 1000 35 52 3 239 12 415 20 776 38 1309 90 1592 155 111 26
277 90 390 150 493 262 825 718 920 1266 21 122 23 431 4 549 -62 386 -228
713 -492 972 -116 112 -140 132 -269 218 -311 208 -602 297 -1305 401 -395 58
-1230 155 -1720 199 -383 35 -495 45 -595 55 -240 24 -1274 104 -1665 130 -88
6 -250 17 -360 25 -110 8 -317 22 -460 30 -143 8 -287 17 -320 20 -50 4 -581
35 -868 50 -42 2 -119 6 -170 9 -50 4 -198 11 -327 16 -129 6 -278 12 -330 15
-465 24 -738 35 -1230 51 -85 2 -288 9 -450 15 -393 13 -2043 19 -2440 9z
m-1145 -980 c166 -24 264 -74 320 -165 29 -46 30 -53 30 -159 0 -100 -3 -117
-27 -169 -15 -32 -42 -72 -59 -88 l-31 -29 -167 0 c-165 0 -168 0 -191 25 -20
22 -22 31 -17 86 5 55 3 64 -18 85 l-24 24 -381 0 c-493 0 -453 17 -539 -225
-27 -77 -70 -201 -96 -275 -26 -74 -62 -178 -80 -230 -19 -52 -95 -270 -169
-484 -155 -443 -159 -465 -103 -521 45 -45 67 -47 412 -43 l290 3 51 27 c63
33 116 93 143 161 53 136 151 425 151 445 0 13 -11 34 -25 47 -23 24 -29 25
-161 25 -128 0 -139 2 -161 22 -29 27 -30 64 -2 165 28 102 42 127 86 158 l38
25 397 0 c385 0 399 -1 418 -20 19 -19 25 -42 21 -82 -2 -15 -41 -121 -151
-408 -35 -92 -163 -428 -202 -530 -46 -124 -71 -168 -129 -233 -56 -64 -131
-119 -210 -154 l-64 -28 -580 0 -580 0 -65 31 c-90 43 -143 93 -180 167 -41
84 -54 171 -39 262 10 60 72 250 204 625 18 52 40 115 49 140 8 25 55 162 104
305 276 800 261 761 338 844 105 114 268 165 579 181 189 10 727 4 820 -10z
m2658 9 c26 -12 47 -47 47 -78 0 -10 -27 -96 -61 -192 -143 -409 -192 -549
-284 -809 -53 -151 -125 -356 -160 -455 -35 -99 -93 -265 -130 -370 -37 -104
-94 -266 -126 -360 -78 -221 -81 -228 -125 -262 -37 -28 -40 -28 -192 -31
-166 -4 -192 -1 -216 24 -26 25 -19 73 30 210 49 138 80 229 195 557 59 171
71 213 63 235 -17 49 -34 52 -385 52 -322 0 -326 0 -359 -22 -18 -13 -41 -34
-52 -48 -15 -21 -130 -337 -290 -800 -68 -199 -85 -210 -315 -210 -146 0 -161
2 -181 20 -14 13 -22 33 -22 54 0 18 34 131 76 252 42 120 112 323 156 449 44
127 104 300 133 385 29 85 67 193 83 240 17 47 78 222 136 390 256 745 241
705 289 741 31 23 40 24 208 27 157 3 178 1 198 -15 46 -38 45 -42 -159 -613
-26 -74 -67 -187 -89 -250 -46 -129 -50 -161 -21 -190 19 -19 33 -20 349 -20
181 0 340 4 353 9 63 26 75 48 184 357 58 165 128 362 156 439 27 77 54 155
59 173 13 42 70 99 112 111 46 13 311 13 340 0z m1482 -14 c600 -7 611 -8 641
-36 32 -30 31 -69 -6 -170 -41 -109 -64 -150 -103 -176 -30 -20 -46 -22 -262
-25 -220 -3 -232 -4 -271 -26 -45 -26 -63 -52 -89 -127 -9 -27 -37 -106 -60
-175 -24 -69 -93 -269 -153 -445 -61 -176 -158 -459 -217 -630 -59 -170 -132
-384 -162 -475 -86 -255 -92 -260 -330 -260 -245 0 -244 -3 -138 305 42 121
89 258 105 305 16 47 68 198 115 335 48 138 97 282 110 320 19 58 153 446 251
729 28 80 30 105 10 132 -13 18 -32 19 -296 24 l-282 5 -24 28 c-31 37 -30 66
7 172 36 106 50 133 81 162 44 42 61 43 333 38 143 -3 476 -7 740 -10z m1418
-36 c25 -11 47 -47 47 -75 0 -13 -54 -171 -217 -634 -30 -85 -60 -173 -67
-195 -8 -22 -100 -285 -205 -584 -105 -299 -191 -552 -191 -563 0 -34 19 -57
58 -68 22 -6 173 -10 377 -10 369 0 376 -1 389 -55 8 -30 -52 -211 -86 -261
-45 -66 -24 -64 -699 -64 l-610 0 -24 25 c-14 13 -25 31 -25 40 0 18 65 215
175 530 115 329 225 647 335 965 138 402 254 733 283 814 28 76 66 122 112
135 45 13 319 13 348 0z m-7446 -45 c33 -34 29 -70 -26 -229 -23 -66 -60 -169
-81 -230 -54 -154 -173 -496 -225 -645 -24 -69 -75 -215 -113 -325 -39 -110
-107 -306 -152 -435 -198 -571 -188 -548 -250 -581 -30 -16 -58 -19 -198 -19
-160 0 -163 0 -187 25 -38 37 -47 0 123 495 38 113 104 304 146 425 42 121 94
272 115 335 22 63 87 255 146 425 59 171 134 389 167 485 75 220 88 243 152
275 47 23 60 25 203 25 152 0 154 0 180 -26z m9063 -8 c22 -7 40 -22 49 -40
12 -26 10 -38 -27 -150 -49 -147 -225 -653 -402 -1156 -59 -169 -218 -625
-321 -918 -62 -181 -80 -192 -302 -192 -87 0 -166 4 -176 10 -10 5 -24 23 -31
39 -13 33 -28 -13 155 516 86 249 130 379 235 685 16 47 77 225 135 395 59
171 138 402 177 515 76 225 99 269 155 300 35 19 49 20 178 14 77 -4 156 -11
175 -18z m-9993 -12 c38 -24 38 -64 -2 -170 -53 -143 -71 -171 -129 -201 -37
-19 -49 -20 -301 -27 -419 -12 -478 -16 -515 -35 -39 -20 -71 -62 -94 -124 -9
-23 -43 -116 -76 -205 -33 -90 -60 -170 -60 -177 0 -7 9 -24 20 -38 l21 -26
310 -3 311 -3 19 -24 c26 -32 24 -62 -13 -160 -67 -181 -58 -177 -450 -188
-287 -7 -308 -9 -334 -29 -15 -11 -36 -32 -47 -46 -22 -29 -197 -500 -197
-530 0 -33 18 -56 54 -68 24 -7 149 -10 396 -9 342 1 363 0 380 -17 30 -30 30
-64 1 -155 -34 -104 -51 -136 -91 -174 l-31 -30 -655 -3 -654 -2 -25 24 c-14
14 -25 34 -25 44 0 18 81 258 265 787 48 138 113 327 145 420 32 94 93 269
135 390 42 121 85 245 95 275 47 141 123 349 140 385 11 22 36 51 56 64 43 29
89 33 629 51 198 7 425 16 505 19 156 8 183 6 217 -15z m10890 -14 c204 -13
201 -9 253 -281 17 -90 51 -270 76 -399 112 -585 131 -671 153 -693 l21 -21
26 25 c14 13 31 35 36 49 12 29 157 446 198 570 16 47 63 184 105 305 42 121
80 232 85 246 21 70 62 119 116 137 29 9 270 7 322 -4 36 -7 62 -40 62 -78 0
-28 -152 -484 -255 -766 -13 -36 -44 -123 -69 -195 -25 -71 -103 -296 -175
-500 -71 -203 -157 -451 -192 -550 -94 -273 -96 -275 -336 -275 -218 0 -206
-11 -253 230 -26 133 -188 933 -225 1110 -19 94 -33 128 -55 140 -25 13 -65
-33 -91 -105 -34 -97 -176 -507 -234 -675 -30 -85 -88 -254 -129 -375 -42
-120 -87 -236 -100 -256 -40 -60 -72 -69 -251 -69 -86 0 -164 4 -174 10 -10 5
-24 22 -30 38 -13 32 -4 63 169 562 44 129 96 280 114 335 36 107 113 332 276
805 56 162 124 359 150 437 57 169 70 192 123 227 47 30 63 31 284 16z
m-13072 -94 c91 -28 146 -73 185 -150 34 -68 35 -71 35 -190 0 -145 -17 -230
-86 -439 -126 -379 -257 -532 -490 -571 -64 -11 -65 -16 -30 -208 88 -496 119
-686 114 -711 -3 -15 -17 -36 -31 -47 -22 -18 -40 -20 -184 -20 -188 0 -214 8
-247 73 -11 23 -27 83 -35 132 -46 279 -128 731 -137 746 -16 32 -44 39 -146
39 -120 0 -135 -4 -155 -38 -15 -26 -90 -225 -176 -472 -138 -394 -149 -419
-193 -451 -32 -23 -43 -24 -206 -27 l-173 -3 -25 25 c-14 14 -25 34 -25 45 0
10 27 97 59 193 33 95 134 394 226 663 91 270 184 542 206 605 22 63 46 135
54 160 22 75 172 506 184 528 5 10 26 33 45 50 42 36 51 38 326 53 113 6 293
17 400 24 239 17 436 13 505 -9z m15560 -46 c804 -59 727 -51 752 -76 31 -32
30 -75 -8 -177 -33 -94 -80 -151 -134 -166 -19 -5 -91 -5 -171 1 -408 26 -582
34 -608 27 -55 -16 -92 -64 -131 -173 -20 -55 -47 -130 -61 -166 -38 -103 -39
-123 -12 -154 27 -32 30 -32 358 -41 247 -7 274 -14 285 -67 9 -37 -48 -208
-82 -249 -50 -59 -68 -62 -378 -55 -263 6 -282 6 -315 -12 -19 -11 -43 -30
-53 -43 -25 -35 -177 -443 -177 -478 0 -16 9 -39 19 -52 l19 -24 390 -5 c301
-4 393 -8 405 -18 29 -24 29 -65 2 -143 -44 -125 -64 -163 -102 -189 l-37 -25
-634 -3 -635 -2 -25 22 c-32 31 -27 69 31 234 62 177 116 332 252 729 64 187
164 477 222 645 58 168 128 372 156 454 55 164 83 207 148 229 21 7 54 11 75
10 22 -2 224 -17 449 -33z m-17235 -43 c14 -7 31 -26 39 -42 13 -26 11 -38
-18 -134 -43 -141 -57 -168 -102 -198 -36 -24 -52 -26 -316 -44 -464 -31 -440
-29 -474 -52 -42 -29 -61 -68 -110 -225 -37 -117 -40 -135 -29 -162 20 -49 55
-54 311 -47 149 5 236 3 256 -3 30 -11 53 -45 53 -79 0 -37 -63 -217 -87 -250
-50 -66 -76 -71 -371 -71 -290 0 -300 -2 -345 -62 -14 -19 -78 -194 -151 -408
-69 -206 -135 -386 -145 -400 -10 -14 -33 -35 -51 -47 -31 -22 -43 -23 -202
-23 -166 0 -169 0 -193 25 -14 13 -25 32 -25 43 0 10 66 211 146 447 80 237
163 482 185 545 260 772 354 1041 374 1072 40 61 60 66 292 79 114 6 352 19
528 29 404 22 405 22 435 7z m18655 -57 c506 -35 696 -51 746 -66 240 -71 316
-231 250 -525 -22 -98 -105 -328 -148 -412 -72 -140 -176 -237 -254 -237 -41
0 -72 -28 -64 -59 6 -26 80 -266 116 -376 81 -245 139 -437 139 -458 0 -13
-12 -34 -26 -48 -24 -23 -33 -24 -171 -27 -165 -4 -214 7 -257 59 -18 21 -65
151 -155 427 -71 218 -132 407 -136 419 -10 36 -31 44 -133 53 -115 10 -148 4
-175 -32 -11 -14 -86 -207 -168 -429 -81 -222 -157 -415 -167 -429 -10 -14
-38 -35 -62 -47 -40 -21 -58 -23 -180 -22 -157 1 -176 5 -203 41 -26 35 -27
34 103 408 56 162 106 306 110 320 5 14 60 176 123 360 64 184 162 472 220
640 57 168 111 321 120 340 30 72 112 122 186 114 20 -2 103 -9 186 -14z"/>
<path d="M11060 9275 c-13 -25 -21 -48 -18 -50 3 -3 15 15 27 41 29 60 21 68
-9 9z"/>
<path d="M12437 9253 c-13 -26 -53 -111 -88 -188 -34 -77 -72 -156 -83 -175
-12 -19 -34 -61 -51 -93 -25 -47 -42 -66 -98 -103 -38 -25 -78 -57 -90 -71
-12 -15 -35 -41 -52 -58 -16 -17 -41 -46 -55 -64 -81 -109 -134 -129 -350
-136 -85 -3 -193 -1 -240 5 -47 5 -126 14 -175 19 -177 18 -299 56 -352 108
-40 40 -38 105 5 190 17 34 36 64 42 68 5 3 10 14 10 24 0 9 13 43 29 74 16
31 26 57 23 57 -3 0 -1 5 6 12 7 7 12 19 12 27 0 8 17 51 39 96 66 136 74 156
68 162 -3 3 -18 -21 -34 -53 -57 -122 -131 -241 -178 -289 -16 -16 -29 -33
-27 -38 2 -5 -4 -7 -12 -4 -38 15 -206 -114 -206 -158 0 -7 -6 -18 -14 -24 -8
-7 -20 -35 -27 -63 -10 -45 -10 -55 6 -84 9 -18 27 -35 40 -38 26 -7 151 -26
210 -32 22 -2 60 -11 85 -19 25 -8 61 -16 80 -19 19 -3 78 -12 130 -20 132
-21 482 -38 634 -32 70 3 161 12 201 21 76 17 107 37 140 90 28 45 155 294
155 305 0 5 10 26 22 47 13 21 37 69 54 108 18 38 53 117 79 175 26 58 58 129
71 159 31 68 24 80 -9 14z"/>
<path d="M14730 9422 c-24 -59 -49 -121 -57 -139 -8 -17 -16 -39 -17 -47 -1
-9 -8 -22 -14 -28 -7 -7 -12 -19 -12 -27 0 -7 -12 -38 -27 -68 -24 -46 -26
-55 -13 -63 12 -8 11 -10 -5 -10 -16 0 -24 -11 -34 -47 -8 -27 -18 -55 -22
-63 -14 -28 -39 -100 -34 -100 8 0 -92 -144 -117 -170 -33 -32 -78 -70 -85
-70 -3 0 -22 -13 -42 -28 -20 -16 -51 -35 -68 -43 -18 -8 -33 -19 -33 -25 0
-7 -8 -14 -18 -16 -10 -3 -34 -28 -54 -56 -31 -42 -34 -52 -23 -62 11 -9 22
-3 53 29 22 23 47 41 56 41 9 0 16 5 16 10 0 6 20 10 44 10 25 0 48 -4 51 -10
3 -5 15 -10 26 -10 11 0 22 -7 25 -15 10 -24 33 -17 45 13 7 15 16 38 21 52 6
14 14 33 20 43 5 10 6 22 3 27 -4 6 -2 10 2 10 7 0 44 88 48 110 0 3 4 11 9
18 4 7 5 24 2 38 -6 24 8 34 17 12 3 -7 6 -3 6 10 1 21 5 31 29 79 7 13 12 31
12 42 0 11 5 21 10 23 6 2 11 18 13 36 1 17 5 32 10 32 4 0 7 9 7 20 0 11 4
20 9 20 5 0 15 17 21 38 6 20 18 51 26 69 8 17 14 37 14 45 0 8 3 17 6 21 6 6
24 54 95 260 17 49 29 90 27 93 -3 2 -24 -44 -48 -104z"/>
<path d="M13795 9374 c-136 -12 -221 -25 -319 -49 -10 -2 -34 -9 -52 -15 -18
-6 -47 -12 -64 -12 -32 -1 -40 -15 -15 -24 9 -4 15 -19 15 -38 l0 -31 25 42
c23 37 31 43 81 53 101 21 176 29 436 46 210 14 263 15 288 4 16 -7 30 -16 30
-19 0 -4 9 -16 19 -28 11 -11 21 -31 23 -44 3 -21 6 -18 30 25 15 26 25 53 21
59 -4 6 -1 7 7 2 8 -5 11 -3 8 6 -12 37 -255 47 -533 23z"/>
<path d="M13212 8913 c-50 -75 -52 -77 -162 -151 -58 -39 -126 -90 -151 -113
-46 -44 -103 -132 -92 -143 3 -3 1 -11 -5 -19 -7 -8 -8 -18 -1 -27 10 -16 19
-8 83 73 16 20 38 39 48 43 10 3 16 10 13 15 -4 5 3 9 13 9 11 0 22 -9 25 -20
3 -11 12 -20 21 -20 11 0 16 -9 16 -28 0 -16 3 -32 7 -36 7 -7 26 32 128 259
32 72 64 137 70 145 11 13 27 60 21 60 -2 0 -17 -21 -34 -47z m-82 -153 c0 -5
-5 -10 -11 -10 -5 0 -7 5 -4 10 3 6 8 10 11 10 2 0 4 -4 4 -10z"/>
<path d="M14040 8340 c0 -5 5 -10 10 -10 6 0 10 5 10 10 0 6 -4 10 -10 10 -5
0 -10 -4 -10 -10z"/>
<path d="M16261 9427 c-68 -190 -135 -356 -192 -473 -32 -67 -59 -126 -59
-132 0 -5 -7 -12 -15 -16 -8 -3 -15 -11 -15 -18 0 -19 -69 -76 -107 -89 -18
-6 -33 -14 -33 -18 0 -4 -13 -8 -28 -9 -57 -1 -114 -44 -150 -111 -34 -64 -36
-90 -5 -55 23 24 79 64 92 64 5 0 11 4 13 9 2 6 22 14 46 20 42 9 44 8 63 -22
10 -18 19 -44 19 -59 0 -37 26 -36 33 1 3 15 17 52 30 82 13 30 32 74 42 99
10 25 26 64 36 87 11 24 19 50 19 59 0 9 7 28 14 42 22 40 89 204 125 307 18
50 36 100 41 112 24 58 72 205 68 208 -2 3 -19 -37 -37 -88z"/>
<path d="M17546 9175 c-9 -26 -7 -32 5 -12 6 10 9 21 6 23 -2 3 -7 -2 -11 -11z"/>
<path d="M17501 9058 c-13 -35 -42 -101 -63 -148 -96 -210 -147 -281 -211
-294 -18 -4 -26 -10 -21 -17 4 -7 3 -9 -2 -6 -14 8 -117 -36 -143 -62 -13 -13
-29 -38 -37 -56 -7 -19 -18 -36 -24 -40 -11 -7 -14 -49 -2 -43 71 37 90 40
228 40 78 0 146 -2 151 -5 5 -3 85 -9 179 -12 93 -3 202 -10 242 -16 40 -5
107 -9 148 -9 72 0 75 -1 109 -36 47 -49 77 -44 89 13 5 23 6 48 3 56 -7 19
-104 34 -202 32 -370 -10 -585 -4 -611 16 -12 10 -1 107 15 144 6 11 24 65 41
120 18 55 43 124 56 153 13 29 24 56 24 60 0 4 14 40 30 81 17 41 29 78 28 83
-2 4 -14 -20 -27 -54z"/>
<path d="M10085 9138 c-15 -35 -36 -83 -47 -108 -10 -25 -26 -59 -35 -77 -8
-17 -13 -36 -9 -41 3 -5 0 -12 -7 -15 -7 -2 -20 -28 -31 -56 -10 -28 -21 -49
-25 -46 -5 2 -14 -7 -21 -20 -20 -37 -67 -54 -145 -53 -73 1 -65 5 -125 -69
-50 -62 -106 -221 -98 -275 3 -18 10 -10 36 41 18 34 32 69 32 77 0 8 5 14 10
14 6 0 10 6 10 14 0 7 6 19 14 25 8 7 18 26 21 42 4 16 10 27 15 24 5 -3 11 4
15 15 5 15 14 20 33 18 22 -2 29 -11 39 -43 7 -22 13 -68 13 -102 0 -64 6 -93
20 -93 5 0 12 10 16 23 3 12 17 45 29 72 61 130 75 170 70 189 -5 16 -4 18 4
6 8 -12 11 -11 16 5 4 11 13 32 21 47 8 14 14 31 14 38 0 6 9 30 21 53 36 73
133 346 125 354 -1 2 -15 -25 -31 -59z"/>
<path d="M19196 9179 c-102 -289 -153 -404 -199 -447 -20 -19 -39 -24 -103
-28 -44 -3 -91 -10 -106 -16 -31 -12 -98 -93 -98 -120 0 -23 9 -23 40 2 14 11
33 20 43 20 10 0 25 7 34 15 10 11 28 14 56 11 42 -5 67 -26 67 -57 0 -9 6
-32 14 -50 l14 -34 10 25 c51 132 58 160 40 171 -9 6 -7 9 7 9 21 0 30 18 78
160 14 41 48 140 77 220 66 186 81 232 77 244 -2 5 -25 -51 -51 -125z"/>
<path d="M9066 9409 c-14 -11 -26 -17 -26 -14 0 4 -20 -9 -44 -29 -45 -37 -86
-57 -121 -62 -11 -2 -90 -10 -175 -18 -200 -21 -215 -26 -60 -21 387 14 395
15 428 44 32 30 62 80 62 106 0 21 -33 19 -64 -6z"/>
<path d="M8355 9253 c-16 -3 -35 -9 -42 -15 -7 -5 -17 -7 -22 -3 -16 9 -79
-24 -86 -45 -6 -19 -3 -251 3 -245 2 2 21 54 43 117 21 62 47 124 57 138 10
14 41 33 68 42 47 17 41 20 -21 11z"/>
<path d="M8448 9253 c7 -3 16 -2 19 1 4 3 -2 6 -13 5 -11 0 -14 -3 -6 -6z"/>
<path d="M8177 8889 c-9 -25 -17 -50 -17 -56 0 -6 -7 -13 -15 -17 -8 -3 -15
-12 -15 -19 0 -8 -7 -20 -15 -27 -9 -7 -13 -21 -9 -35 3 -13 1 -26 -5 -29 -6
-4 -11 1 -11 11 -1 11 -8 4 -21 -19 -10 -21 -28 -42 -38 -48 -11 -5 -23 -20
-27 -32 -4 -13 -9 -25 -13 -28 -3 -3 -19 -22 -34 -42 -15 -21 -35 -38 -43 -38
-7 0 -14 -9 -14 -20 0 -26 -34 -27 -52 -2 -22 31 -65 54 -87 47 -12 -4 -45
-46 -77 -100 -47 -80 -54 -97 -44 -114 10 -20 40 -30 40 -13 0 9 61 40 105 53
17 5 149 12 295 14 146 3 290 8 320 12 30 3 111 5 179 4 101 -2 130 -6 159
-22 43 -25 56 -38 80 -80 23 -42 52 -44 70 -5 12 24 12 30 1 37 -7 4 -10 11
-7 15 10 10 -23 41 -77 71 l-50 28 -250 -2 c-137 -2 -307 -6 -376 -10 -94 -6
-129 -5 -138 4 -32 35 7 121 107 231 19 21 43 71 67 142 36 107 46 177 12 89z"/>
<path d="M20127 9031 c-15 -33 -27 -64 -27 -69 0 -6 -4 -12 -8 -14 -4 -1 -18
-23 -31 -48 -36 -72 -95 -151 -137 -182 -21 -15 -41 -32 -44 -36 -7 -9 -65
-29 -112 -38 -21 -3 -38 -10 -38 -14 0 -4 -11 -11 -25 -14 -18 -5 -32 -22 -50
-63 -14 -31 -29 -69 -32 -85 -5 -28 -5 -29 14 -17 11 6 31 29 44 51 13 21 31
38 40 38 9 0 22 7 29 15 7 8 19 15 26 15 8 0 14 5 14 10 0 6 15 10 33 10 37 0
63 -23 92 -79 17 -33 18 -34 31 -16 8 10 14 27 14 36 0 10 5 21 10 24 6 3 10
15 10 27 0 11 6 32 14 46 7 15 19 43 26 62 6 19 20 57 31 84 10 27 16 52 14
57 -3 4 0 9 6 11 15 5 95 235 86 245 -2 1 -15 -24 -30 -56z m-100 -273 c-3 -7
-5 -2 -5 12 0 14 2 19 5 13 2 -7 2 -19 0 -25z"/>
<path d="M21437 8939 c-34 -76 -101 -169 -122 -169 -5 0 -16 -6 -24 -13 -25
-22 -180 -57 -246 -57 -63 0 -206 -28 -216 -43 -3 -5 -14 9 -22 30 -51 118
-66 147 -67 125 0 -22 39 -149 60 -197 5 -11 20 -47 34 -80 27 -66 38 -74 46
-32 5 27 54 87 71 87 5 0 9 6 9 13 0 8 18 19 40 26 22 6 40 16 40 21 0 10 19
8 123 -12 52 -10 60 -15 76 -47 10 -20 22 -56 26 -81 l8 -45 23 70 c13 39 28
78 34 87 5 10 10 25 10 33 0 8 4 15 9 15 6 0 13 20 17 45 3 25 10 48 15 51 9
5 29 48 49 104 7 19 21 55 32 79 10 23 18 50 16 59 -2 9 -20 -22 -41 -69z"/>
<path d="M7090 10054 c-8 -2 -100 -8 -203 -13 -103 -6 -198 -16 -210 -22 -64
-33 -85 -68 -143 -242 -83 -252 -81 -254 196 -256 271 -2 348 16 404 97 53 77
118 242 124 313 4 64 4 66 -28 92 -20 18 -43 27 -65 27 -18 0 -39 2 -47 4 -7
2 -20 2 -28 0z"/>
<path d="M6328 9225 c-3 -3 -61 -11 -129 -18 l-124 -12 52 -34 c41 -28 51 -40
50 -60 -1 -14 -10 -32 -19 -39 -10 -7 -18 -22 -18 -33 0 -11 -10 -24 -22 -29
-13 -5 -20 -9 -16 -9 11 -1 -61 -71 -72 -71 -6 0 -9 -3 -9 -7 3 -19 -2 -33
-12 -33 -11 0 -179 -168 -179 -180 0 -4 -8 -16 -17 -28 -10 -11 -26 -30 -35
-41 -10 -12 -18 -27 -18 -35 0 -7 -7 -19 -15 -26 -8 -7 -15 -18 -15 -25 0 -7
-11 -32 -24 -56 -13 -24 -26 -66 -30 -94 l-6 -50 35 50 c19 28 38 55 42 60 15
18 93 144 93 150 0 7 31 45 58 68 12 11 22 25 22 31 0 6 11 24 24 40 20 26 25
28 38 16 12 -12 13 -25 2 -91 -7 -43 -15 -87 -18 -98 -3 -12 -9 -30 -12 -41
-3 -11 -1 -20 5 -20 6 0 11 5 11 11 0 13 77 200 125 304 17 39 54 120 80 180
67 151 92 187 135 197 44 9 144 1 237 -19 68 -16 73 -18 92 -57 25 -51 62
-161 95 -286 14 -52 37 -133 51 -180 15 -47 31 -100 35 -118 4 -18 17 -57 28
-85 11 -29 23 -64 26 -79 9 -41 21 -34 32 19 13 66 45 88 105 73 24 -6 51 -12
61 -14 9 -1 24 -8 32 -16 22 -18 32 -5 18 25 -7 14 -23 27 -39 31 -70 15 -140
39 -162 56 -13 10 -29 18 -35 18 -37 0 -84 88 -125 235 -6 22 -17 63 -26 90
-8 28 -24 82 -35 120 -39 134 -83 183 -181 204 -51 11 -182 15 -191 6z"/>
<path d="M23175 9243 c-22 -12 -67 -18 -165 -22 l-135 -6 127 -8 c101 -6 133
-5 161 7 33 13 54 33 45 41 -2 2 -17 -3 -33 -12z"/>
<path d="M22525 9211 c-50 -31 -74 -64 -105 -145 -17 -43 -30 -80 -30 -84 0
-4 21 33 46 83 47 94 65 119 99 138 11 7 86 14 175 17 l155 6 -155 2 c-136 2
-159 0 -185 -17z"/>
<path d="M22325 8847 c-96 -196 -159 -269 -268 -313 -43 -17 -84 -42 -110 -68
-42 -41 -104 -143 -94 -153 5 -4 69 60 87 87 3 4 19 14 36 23 17 9 36 23 43
31 15 17 73 14 151 -9 25 -7 86 -21 135 -30 50 -9 113 -22 140 -30 28 -8 111
-21 185 -29 247 -28 295 -34 350 -46 39 -8 64 -8 83 -1 31 12 51 51 33 63 -7
5 -3 8 9 8 14 1 10 5 -15 17 -31 13 -51 14 -165 3 -186 -16 -359 -16 -420 3
-63 18 -159 60 -163 70 -2 4 -16 7 -32 7 -42 0 -60 24 -60 77 0 42 41 183 60
208 10 14 72 176 68 180 -2 2 -26 -42 -53 -98z m628 -474 c-7 -2 -19 -2 -25 0
-7 3 -2 5 12 5 14 0 19 -2 13 -5z"/>
<path d="M5275 9248 c-16 -12 -32 -25 -35 -28 -16 -19 -165 -31 -351 -29 -112
2 -224 -1 -249 -5 -78 -14 -144 -33 -179 -52 -43 -24 -129 -104 -133 -124 -2
-8 -5 -17 -8 -20 -13 -13 -60 -91 -60 -100 0 -5 -4 -10 -8 -10 -5 0 -15 -17
-23 -37 -8 -20 -19 -46 -26 -57 -32 -56 -73 -142 -73 -152 0 -6 -6 -17 -14
-23 -8 -7 -17 -30 -21 -52 -4 -24 -11 -37 -18 -32 -6 4 -8 0 -4 -10 3 -10 2
-17 -3 -17 -6 0 -10 -7 -10 -15 0 -9 -6 -26 -14 -38 -20 -31 -36 -129 -27
-163 10 -38 45 -46 96 -21 49 23 73 60 96 147 9 36 29 88 43 117 14 28 30 73
36 100 6 26 17 59 24 73 7 14 26 60 41 103 15 42 31 77 35 77 4 0 12 18 19 39
6 21 18 42 26 45 8 3 15 14 15 23 0 10 8 25 18 34 9 8 26 26 37 39 57 70 132
88 370 89 136 1 340 19 378 33 30 12 67 52 67 74 0 19 -10 17 -45 -8z"/>
<path d="M24523 9919 c-17 -11 -39 -31 -48 -45 -19 -29 -125 -331 -125 -355 0
-9 8 -27 19 -40 17 -21 32 -25 152 -36 185 -16 264 -16 298 2 60 31 135 160
181 313 19 62 20 74 8 99 -18 37 -86 60 -225 73 -165 15 -223 13 -260 -11z"/>
<path d="M25277 9353 c-4 -3 -7 -11 -7 -17 0 -6 5 -5 12 2 6 6 9 14 7 17 -3 3
-9 2 -12 -2z"/>
<path d="M25240 9310 c-9 -6 -10 -10 -3 -10 6 0 15 5 18 10 8 12 4 12 -15 0z"/>
<path d="M25165 9253 c-64 -44 -68 -50 -25 -28 37 19 97 65 83 64 -4 0 -30
-16 -58 -36z"/>
<path d="M24340 9222 c-108 -13 -207 -90 -245 -190 -11 -30 -28 -61 -37 -69
-10 -9 -18 -20 -18 -24 0 -4 -22 -31 -50 -60 -27 -29 -50 -56 -50 -61 0 -4 -7
-8 -15 -8 -7 0 -18 -6 -22 -13 -9 -14 -63 -50 -63 -42 0 3 -17 -3 -39 -14 -21
-11 -41 -18 -43 -16 -13 14 -50 -49 -62 -106 -7 -35 -12 -65 -11 -67 6 -7 34
12 44 31 14 25 75 67 97 67 8 0 14 5 14 12 0 27 32 -21 45 -68 11 -42 14 -46
20 -26 4 12 11 22 16 22 5 0 9 6 9 13 1 6 9 30 20 52 11 22 20 45 20 50 0 6
18 45 40 88 22 43 38 82 35 87 -3 4 2 10 10 14 8 3 15 15 15 26 0 11 4 20 8
20 4 0 21 36 37 81 53 146 106 175 315 173 126 -1 205 -16 268 -48 17 -9 37
-16 45 -16 18 0 77 -65 77 -84 0 -8 4 -17 9 -20 5 -3 11 -18 14 -33 2 -16 10
-44 17 -63 7 -19 16 -44 20 -55 4 -11 18 -42 31 -70 13 -27 23 -53 21 -58 -1
-5 4 -20 13 -33 8 -13 15 -30 15 -38 0 -8 11 -32 25 -52 14 -20 25 -43 25 -50
0 -7 9 -33 19 -56 11 -24 29 -68 41 -98 22 -57 74 -125 89 -115 9 5 -2 50 -20
87 -5 10 -9 26 -9 36 0 10 -11 40 -24 68 -13 27 -34 77 -46 112 -12 34 -25 62
-29 62 -4 0 -15 28 -24 63 -10 34 -29 89 -42 122 -13 33 -32 93 -41 133 -18
83 -10 121 32 149 21 14 25 41 4 28 -9 -6 -111 -7 -145 -1 -35 5 -110 30 -115
37 -16 22 -242 35 -360 21z"/>
<path d="M1230 8913 c8 -2 22 -7 30 -10 24 -9 50 -10 55 -3 3 4 -9 10 -26 14
-37 7 -81 7 -59 -1z"/>
<path d="M1340 8880 c0 -5 5 -10 10 -10 6 0 10 5 10 10 0 6 -4 10 -10 10 -5 0
-10 -4 -10 -10z"/>
<path d="M1382 8868 c3 -7 15 -15 28 -16 21 -3 22 -2 11 12 -16 19 -44 21 -39
4z"/>
<path d="M1440 8858 c0 -9 20 -19 53 -27 28 -8 68 -21 87 -31 40 -20 94 -42
160 -63 25 -8 70 -25 100 -37 30 -12 66 -24 80 -27 14 -3 34 -12 45 -19 11 -8
28 -14 38 -14 10 0 33 -11 51 -25 18 -14 41 -25 52 -25 10 0 28 -7 38 -15 11
-8 26 -15 34 -15 8 0 25 -9 39 -20 14 -11 34 -20 43 -20 10 0 21 -7 24 -16 5
-12 10 -13 19 -5 10 8 23 1 52 -29 21 -21 41 -37 45 -35 7 4 80 -61 80 -71 0
-2 18 -20 40 -40 22 -20 40 -43 40 -50 0 -10 7 -13 24 -8 21 5 23 3 18 -22 -4
-24 -3 -26 20 -22 16 3 35 -2 49 -13 13 -10 18 -19 12 -19 -7 0 -13 -4 -13
-10 0 -14 37 -12 43 3 4 7 6 6 6 -4 1 -22 57 -80 106 -109 22 -14 63 -45 90
-71 28 -25 65 -51 83 -57 32 -11 80 -58 74 -74 -1 -5 7 -8 18 -8 11 0 20 6 20
12 0 7 12 0 26 -15 14 -15 39 -30 55 -34 16 -3 29 -12 29 -19 0 -9 12 -14 35
-14 19 0 35 -4 35 -10 0 -13 58 -42 70 -35 6 3 10 2 10 -4 0 -5 16 -15 35 -22
19 -7 35 -19 35 -26 0 -7 6 -10 13 -7 8 3 25 -6 38 -20 13 -14 31 -26 39 -26
8 0 40 -15 70 -34 31 -19 69 -37 85 -41 19 -4 10 3 -25 20 -30 14 -57 30 -60
34 -3 4 -21 15 -41 24 -20 9 -42 23 -49 32 -7 8 -19 15 -26 15 -8 0 -14 5 -14
10 0 6 -6 10 -14 10 -8 0 -16 3 -18 8 -7 17 -154 106 -170 104 -10 -2 -18 2
-18 7 0 6 -9 11 -20 11 -10 0 -23 6 -27 14 -7 12 -22 22 -99 64 -13 7 -24 17
-24 23 0 5 -5 9 -12 9 -6 0 -18 7 -27 15 -38 35 -77 63 -96 66 -11 2 -24 14
-30 27 -5 12 -14 22 -20 22 -10 0 -147 121 -174 154 -30 38 -144 146 -152 146
-5 0 -9 6 -9 13 0 14 -53 67 -68 67 -5 0 -21 11 -36 25 -15 14 -34 25 -42 25
-7 0 -14 5 -14 10 0 6 -5 10 -11 10 -6 0 -22 9 -36 20 -14 11 -33 20 -42 20
-22 0 -223 82 -239 97 -7 7 -24 13 -38 13 -13 0 -32 4 -42 9 -30 15 -66 29
-122 46 -30 10 -64 22 -74 27 -22 12 -57 23 -131 43 -107 29 -191 53 -207 60
-12 5 -18 3 -18 -7z"/>
<path d="M28120 8860 c0 -5 5 -10 10 -10 6 0 10 5 10 10 0 6 -4 10 -10 10 -5
0 -10 -4 -10 -10z"/>
<path d="M28080 8851 c0 -4 -25 -11 -57 -14 -31 -3 -59 -10 -62 -15 -3 -5 -28
-12 -56 -16 -45 -5 -123 -30 -210 -65 -16 -7 -43 -15 -60 -18 -16 -4 -32 -9
-35 -12 -10 -12 -81 -41 -100 -41 -11 0 -28 -4 -38 -9 -53 -27 -170 -80 -189
-85 -11 -4 -27 -13 -33 -21 -7 -8 -21 -15 -32 -15 -10 0 -21 -7 -24 -15 -4 -8
-17 -15 -31 -15 -24 0 -95 -34 -122 -59 -8 -7 -33 -21 -55 -31 -23 -10 -55
-32 -73 -49 -18 -18 -38 -28 -46 -25 -10 3 -18 -2 -21 -14 -4 -11 -19 -28 -33
-37 -14 -10 -41 -32 -59 -49 -44 -41 -62 -56 -69 -56 -17 0 -100 -71 -205
-175 -19 -19 -40 -35 -46 -35 -6 0 -27 -15 -47 -32 -61 -56 -100 -83 -119 -81
-12 2 -18 -4 -18 -16 0 -12 -9 -23 -22 -27 -13 -3 -30 -12 -38 -19 -15 -13
-19 -15 -40 -15 -5 0 -10 -7 -10 -15 0 -13 -26 -21 -54 -16 -5 1 -6 -5 -3 -12
4 -10 0 -13 -12 -10 -10 2 -23 -3 -31 -12 -11 -13 -10 -15 6 -9 14 4 15 3 5
-4 -7 -5 -21 -7 -31 -5 -10 3 -20 -2 -24 -12 -5 -14 -14 -16 -41 -11 -23 5
-35 3 -35 -4 0 -6 6 -8 13 -4 8 5 8 3 -2 -9 -8 -11 -21 -15 -36 -11 -12 3 -28
-1 -36 -8 -8 -8 -47 -29 -86 -48 -40 -19 -73 -39 -73 -43 0 -5 -5 -5 -12 -1
-7 4 -8 3 -4 -4 5 -8 18 -5 44 10 38 21 128 48 161 48 10 0 24 7 31 15 8 10
21 13 38 8 16 -4 23 -2 19 4 -7 11 23 23 59 23 11 0 30 9 41 20 12 10 33 22
47 26 14 3 26 10 26 15 0 5 12 9 28 9 15 0 35 9 45 20 9 11 23 20 31 20 7 0
19 7 26 15 7 9 21 13 31 10 11 -4 19 -2 19 4 0 19 62 71 85 71 13 0 29 10 39
24 8 14 24 27 33 30 10 3 27 22 37 41 11 19 25 35 33 35 7 0 13 4 13 8 0 16
72 81 85 76 11 -5 28 10 30 26 1 3 10 20 22 39 17 27 22 30 25 15 3 -17 5 -17
26 4 12 12 28 22 36 22 9 0 12 7 9 23 -3 14 -2 18 4 10 7 -10 18 -5 46 20 54
48 94 77 106 77 6 0 11 6 11 14 0 9 16 16 43 20 33 5 53 17 82 46 22 22 45 40
53 40 8 0 37 16 65 36 30 22 57 34 68 31 11 -3 17 -2 14 2 -2 4 17 18 43 30
26 12 54 26 62 31 8 6 31 17 50 25 19 9 42 23 52 31 9 9 21 14 26 10 4 -3 23
4 40 14 17 11 40 17 49 14 13 -4 15 -3 5 4 -10 7 -2 11 28 16 41 6 190 64 200
77 3 3 23 9 45 13 22 4 50 14 61 21 12 8 49 19 82 26 34 7 64 19 66 26 3 7 1
13 -4 13 -6 0 -10 -4 -10 -9z"/>
<path d="M1272 8510 c0 -14 2 -19 5 -12 2 6 2 18 0 25 -3 6 -5 1 -5 -13z"/>
<path d="M1301 8429 c22 -57 47 -109 53 -109 6 0 -6 43 -14 55 -4 6 -13 27
-19 47 -7 20 -18 42 -26 48 -9 8 -8 -4 6 -41z"/>
<path d="M1374 8297 c3 -10 6 -27 6 -38 0 -11 7 -19 16 -19 19 0 11 37 -13 60
-14 13 -15 13 -9 -3z"/>
<path d="M1405 8221 c-4 -7 2 -21 14 -32 12 -11 21 -24 21 -30 0 -15 30 -43
37 -35 3 3 -1 14 -10 24 -10 10 -17 23 -17 28 0 5 -9 20 -19 33 -13 17 -20 20
-26 12z"/>
<path d="M27952 8129 c3 -8 -9 -26 -26 -41 -17 -15 -28 -30 -24 -33 6 -7 67
53 68 67 0 4 -5 10 -11 14 -7 4 -10 1 -7 -7z"/>
<path d="M1500 8075 c0 -8 4 -15 10 -15 5 0 7 -7 4 -15 -4 -8 -1 -15 5 -15 12
0 13 6 5 38 -7 25 -24 30 -24 7z"/>
<path d="M1536 8021 c-9 -13 4 -41 18 -41 6 0 20 -15 30 -32 11 -18 25 -40 33
-48 20 -22 47 -55 69 -86 29 -40 72 -84 83 -84 5 0 13 -9 16 -20 3 -11 10 -20
14 -20 4 0 34 -25 66 -55 33 -30 65 -55 73 -55 7 0 15 -7 19 -16 3 -8 15 -20
27 -25 11 -5 39 -23 61 -39 22 -16 49 -29 59 -30 13 0 3 11 -28 31 -35 23 -44
34 -34 40 9 6 4 9 -14 9 -16 0 -28 5 -28 10 0 6 -6 10 -13 10 -8 0 -22 9 -32
20 -10 11 -24 20 -31 20 -7 0 -15 9 -19 19 -3 11 -15 23 -26 26 -10 4 -19 10
-19 15 0 5 -9 12 -21 15 -11 4 -18 9 -15 12 7 7 -55 74 -64 68 -8 -5 -40 31
-40 45 0 5 -9 14 -21 20 -11 7 -18 18 -15 25 3 9 0 12 -10 8 -8 -3 -14 1 -14
11 0 8 -12 28 -27 44 -52 54 -73 82 -73 97 0 17 -16 20 -24 6z"/>
<path d="M27852 8010 c-13 -21 -6 -25 18 -10 10 6 12 12 5 19 -7 7 -14 4 -23
-9z"/>
<path d="M27800 7961 c0 -4 -27 -36 -60 -70 -33 -34 -60 -67 -60 -74 0 -6 34
23 75 65 41 42 75 79 75 82 0 3 -7 6 -15 6 -8 0 -15 -4 -15 -9z"/>
<path d="M27585 7759 c-10 -15 1 -23 20 -15 9 3 13 10 10 16 -8 13 -22 13 -30
-1z"/>
<path d="M25985 7730 c-3 -5 -1 -10 4 -10 6 0 11 5 11 10 0 6 -2 10 -4 10 -3
0 -8 -4 -11 -10z"/>
<path d="M27535 7710 c-3 -5 1 -10 9 -10 9 0 16 5 16 10 0 6 -4 10 -9 10 -6 0
-13 -4 -16 -10z"/>
<path d="M27481 7670 c-18 -16 -41 -32 -52 -35 -10 -4 -19 -13 -19 -21 0 -8
-7 -14 -15 -14 -8 0 -25 -11 -37 -25 -12 -14 -30 -25 -40 -25 -10 0 -18 -4
-18 -9 0 -5 -13 -14 -30 -21 -16 -7 -30 -16 -30 -21 0 -5 -9 -9 -20 -9 -11 0
-20 -4 -20 -8 0 -4 -14 -16 -32 -26 -38 -23 -95 -76 -81 -76 5 0 20 9 33 20
12 10 35 25 51 32 16 7 29 16 29 20 0 5 7 8 15 8 9 0 18 7 21 15 4 8 13 15 22
15 8 0 50 27 93 60 42 33 80 60 83 60 5 0 13 6 73 56 14 12 21 24 15 28 -5 3
-24 -7 -41 -24z"/>
<path d="M2134 7454 c3 -9 6 -18 6 -20 0 -2 5 -4 11 -4 8 0 9 4 0 13 -6 8 -8
17 -4 20 3 4 1 7 -6 7 -8 0 -11 -6 -7 -16z"/>
<path d="M2180 7432 c0 -11 24 -22 48 -22 21 0 5 15 -25 25 -13 3 -23 2 -23
-3z"/>
<path d="M2280 7373 c25 -16 62 -36 83 -44 21 -9 38 -19 37 -24 -1 -4 13 -15
30 -23 27 -13 33 -13 41 -1 7 12 9 12 9 -1 0 -8 10 -20 23 -25 12 -6 21 -17
19 -24 -1 -7 3 -11 10 -9 26 9 19 37 -14 54 -18 9 -36 22 -40 28 -5 8 -8 7 -8
-1 0 -7 -7 -13 -16 -13 -8 0 -12 5 -9 10 3 6 0 10 -8 10 -8 0 -22 8 -31 19 -9
10 -31 22 -48 25 -18 3 -39 13 -47 20 -9 8 -29 17 -46 21 -27 6 -25 4 15 -22z"/>
<path d="M27040 7382 c0 -6 -12 -15 -27 -21 -45 -18 -173 -87 -185 -99 -17
-17 0 -15 46 7 23 10 56 25 74 32 17 8 32 16 32 19 0 3 20 14 45 25 43 19 52
34 27 43 -7 2 -12 -1 -12 -6z"/>
<path d="M26755 7235 c-25 -8 -34 -14 -25 -18 10 -4 8 -6 -7 -6 -12 -1 -39 -8
-60 -17 -65 -28 -77 -33 -123 -45 -25 -7 -49 -16 -54 -21 -6 -4 -22 -8 -37 -8
-15 0 -85 -11 -155 -24 -71 -14 -194 -32 -273 -41 -79 -9 -147 -18 -151 -20
-4 -3 -47 -7 -95 -10 -48 -2 -90 -7 -93 -10 -16 -16 23 -16 160 0 84 9 191 21
238 26 128 12 240 31 240 41 0 4 17 8 39 8 61 0 131 12 125 21 -3 5 13 9 36 9
30 0 39 3 34 13 -6 9 -4 9 8 -1 10 -8 19 -9 22 -3 3 5 0 12 -6 15 -7 3 -1 3
13 0 16 -3 32 0 41 10 9 8 18 13 21 10 3 -3 13 -1 24 5 21 12 90 42 115 50 10
4 14 11 10 17 -5 7 -19 7 -47 -1z m-602 -182 c-7 -2 -19 -2 -25 0 -7 3 -2 5
12 5 14 0 19 -2 13 -5z"/>
<path d="M2566 7225 c4 -10 14 -15 25 -12 11 3 22 -1 27 -8 10 -18 111 -47
129 -36 18 10 4 21 -30 25 -50 6 -87 18 -81 27 3 5 -6 9 -20 9 -13 0 -32 3
-40 6 -12 5 -15 2 -10 -11z"/>
<path d="M2770 7161 c0 -5 15 -13 33 -16 17 -4 57 -16 88 -25 30 -10 87 -21
125 -25 38 -4 74 -11 79 -15 19 -14 165 -22 165 -9 0 7 -10 9 -30 6 -17 -4
-30 -2 -30 3 0 6 -14 10 -31 10 -17 0 -58 7 -91 16 -33 8 -65 13 -71 11 -7 -2
-36 5 -65 15 -29 10 -69 19 -88 20 -19 1 -37 5 -40 10 -7 11 -44 10 -44 -1z"/>
<path d="M3280 7061 c0 -6 12 -12 28 -13 75 -4 110 -7 137 -12 17 -3 64 -8
105 -11 41 -3 165 -13 275 -21 335 -26 335 -26 335 -15 0 6 -10 12 -22 13 -13
0 -34 2 -48 4 -14 2 -110 8 -215 14 -104 5 -201 13 -215 16 -23 5 -121 15
-312 30 -44 3 -68 1 -68 -5z"/>
<path d="M25591 7011 c-8 -5 -63 -10 -122 -10 -95 -1 -193 -12 -204 -22 -4 -5
109 -2 240 6 50 3 102 5 117 6 14 0 32 6 38 14 11 13 7 15 -21 15 -19 0 -40
-4 -48 -9z"/>
<path d="M4275 6980 c55 -4 147 -11 204 -15 80 -6 103 -5 100 4 -3 9 -57 13
-204 16 -152 2 -176 1 -100 -5z"/>
<path d="M4630 6980 c-32 -21 14 -31 133 -28 64 2 117 0 117 -4 0 -5 18 -8 40
-8 29 0 40 4 40 15 0 12 -19 15 -108 15 -64 0 -112 4 -119 11 -8 8 -13 8 -17
0 -9 -14 -49 -14 -62 -1 -6 6 -15 6 -24 0z"/>
<path d="M25200 6975 c0 -16 16 -20 24 -6 3 5 -1 11 -9 15 -9 3 -15 0 -15 -9z"/>
<path d="M25077 6973 c-1 -1 -52 -3 -112 -4 -61 -1 -114 -5 -119 -7 -5 -3 -68
-7 -140 -9 -72 -2 -171 -5 -221 -7 -49 -3 -125 -5 -167 -5 -43 -1 -78 -5 -78
-10 0 -6 55 -8 138 -6 429 13 781 30 789 39 4 3 0 7 -8 8 -23 2 -81 3 -82 1z"/>
<path d="M4975 6950 c3 -5 17 -10 31 -10 14 0 22 4 19 10 -3 6 -17 10 -31 10
-14 0 -22 -4 -19 -10z"/>
<path d="M5040 6949 c0 -5 28 -9 63 -10 34 0 118 -2 187 -4 69 -2 265 -6 435
-9 171 -3 375 -9 455 -12 80 -4 143 -4 140 -1 -10 11 -295 27 -576 32 -154 3
-375 7 -491 10 -127 2 -213 0 -213 -6z"/>
<path d="M6579 6935 c-4 -3 -54 -6 -113 -6 -58 -1 -106 -6 -106 -11 0 -5 58
-8 140 -6 77 2 140 0 140 -4 0 -10 414 -10 500 0 45 5 -22 9 -220 13 -157 3
-296 9 -310 13 -14 4 -28 5 -31 1z"/>
<path d="M23980 6930 c-58 -5 -187 -10 -286 -12 -100 -1 -180 -7 -177 -12 3
-4 96 -5 207 -1 110 3 264 6 341 6 82 -1 135 3 130 8 -16 15 -103 19 -215 11z"/>
<path d="M7227 6908 c-16 -10 -39 -9 353 -12 190 -2 740 -6 1223 -11 701 -6
877 -5 877 5 0 10 -67 12 -320 7 -176 -3 -320 -2 -320 1 0 6 -166 8 -1373 15
-236 1 -434 -1 -440 -5z"/>
<path d="M9701 6901 c-11 -7 -11 -10 0 -17 8 -5 334 -10 724 -11 5160 -13
10157 -19 11192 -13 183 1 335 5 338 10 8 13 -42 17 -165 14 -139 -3 -5965 -3
-6100 0 -52 2 -1170 4 -2485 5 -1314 1 -2518 6 -2675 10 -157 5 -286 6 -287 2
-2 -3 -45 -5 -95 -4 -51 2 -170 5 -263 7 -94 3 -177 1 -184 -3z"/>
<path d="M22680 6899 c42 -5 -487 -14 -645 -11 -57 1 -65 -1 -45 -9 17 -7 169
-9 480 -4 250 3 514 6 585 5 72 0 144 4 160 9 29 9 29 9 5 12 -54 5 -582 4
-540 -2z"/>
<path d="M23260 6901 c0 -8 79 -3 89 5 2 2 -17 4 -42 4 -26 0 -47 -4 -47 -9z"/>
<path d="M23360 6899 c0 -5 9 -9 20 -9 11 0 20 2 20 4 0 2 -9 6 -20 9 -11 3
-20 1 -20 -4z"/>
<path d="M23430 6900 c8 -5 26 -10 40 -10 20 0 22 2 10 10 -8 5 -26 10 -40 10
-20 0 -22 -2 -10 -10z"/>
<path d="M28343 11790 c-23 -5 -76 -25 -118 -44 -96 -44 -197 -142 -244 -234
-111 -220 -67 -483 109 -645 111 -102 225 -147 375 -147 239 0 439 142 517
368 29 86 32 247 5 333 -55 177 -229 335 -407 369 -61 12 -177 11 -237 0z
m226 -85 c125 -30 237 -121 291 -238 62 -131 62 -278 1 -412 -129 -285 -507
-342 -719 -110 -65 71 -100 146 -114 245 -23 154 20 288 127 396 113 114 258
155 414 119z"/>
<path d="M28255 11568 c-3 -7 -4 -150 -3 -318 l3 -305 48 -3 47 -3 1 53 c0 29
2 89 2 133 l2 80 52 0 53 0 82 -130 83 -130 54 -3 c43 -3 52 0 48 11 -3 8 -41
68 -84 133 -43 65 -79 122 -81 126 -2 4 15 12 37 18 87 23 128 88 118 190 -6
72 -26 103 -85 132 -42 21 -64 23 -209 26 -130 3 -164 1 -168 -10z m336 -107
c37 -38 39 -88 5 -128 -24 -27 -26 -28 -133 -28 l-108 0 -3 79 c-2 44 -1 85 2
93 4 10 31 13 106 13 99 0 102 -1 131 -29z"/>
</g>
</svg>
