<?xml version="1.0" standalone="no"?>
<!DOCTYPE svg PUBLIC "-//W3C//DTD SVG 20010904//EN"
 "http://www.w3.org/TR/2001/REC-SVG-20010904/DTD/svg10.dtd">
<svg version="1.0" xmlns="http://www.w3.org/2000/svg"
 width="214.000000pt" height="236.000000pt" viewBox="0 0 214.000000 236.000000"
 preserveAspectRatio="xMidYMid meet">

<g transform="translate(0.000000,236.000000) scale(0.100000,-0.100000)"
fill="#000000" stroke="none">
<path d="M1070 2303 l0 -52 -287 -292 c-580 -588 -655 -665 -674 -694 -10 -16
-19 -48 -20 -70 0 -22 -3 -34 -6 -27 -2 6 -18 12 -34 12 -21 0 -29 5 -29 18
-1 16 -1 16 -11 -1 -14 -24 3 -97 36 -152 13 -22 71 -87 128 -143 81 -81 106
-100 110 -87 5 11 3 14 -6 9 -8 -5 -7 -2 2 9 9 11 10 17 2 17 -15 0 -14 27 1
32 7 3 -25 43 -70 90 -81 85 -96 106 -66 94 8 -3 12 -2 9 4 -6 9 10 14 42 13
10 -1 11 13 7 52 -8 68 -2 93 34 133 31 34 43 38 205 57 26 4 47 11 47 16 0
11 561 581 566 576 2 -1 -3 -57 -11 -122 -8 -66 -18 -149 -22 -185 -6 -54 -8
-60 -14 -35 -6 28 -7 29 -14 8 -8 -26 -25 -31 -25 -7 0 8 -5 12 -10 9 -6 -3
-7 -18 -4 -33 4 -15 3 -24 -1 -20 -4 4 -21 -3 -37 -17 -16 -13 -35 -22 -43
-19 -9 4 -15 0 -15 -8 0 -22 -43 -58 -68 -58 -13 0 -26 -8 -29 -17 -7 -20 -22
-33 -38 -33 -5 0 -4 4 3 9 11 7 11 9 -1 14 -9 3 -21 -1 -27 -9 -7 -8 -9 -14
-4 -15 5 0 0 -4 -11 -9 -18 -8 -17 -9 6 -9 40 -1 89 10 84 20 -3 4 21 5 52 2
44 -3 54 -2 43 6 -11 9 -4 10 28 5 36 -6 46 -3 63 15 21 22 39 28 39 12 0 -5
-8 -12 -17 -14 -10 -3 29 -6 87 -6 58 -1 182 -12 275 -26 94 -13 190 -27 214
-31 24 -3 40 -9 35 -12 -14 -10 -38 -65 -35 -81 1 -7 -2 -10 -9 -6 -7 4 -10
15 -7 24 3 11 -3 16 -20 17 -22 2 -23 -1 -23 -77 0 -76 1 -79 24 -79 20 0 23
4 19 28 -3 27 -3 27 7 3 13 -30 39 -50 65 -51 16 0 17 2 5 9 -8 6 -17 8 -20 6
-3 -2 -3 31 -2 72 2 49 0 78 -7 83 -13 8 -4 40 11 40 6 0 8 -7 4 -15 -3 -8 -1
-15 5 -15 6 0 7 -5 4 -10 -6 -10 12 -8 66 6 9 3 21 -1 27 -8 8 -10 1 -12 -35
-9 l-46 3 5 -30 c3 -22 1 -29 -9 -25 -9 4 -13 -5 -12 -33 1 -35 2 -37 10 -14
8 22 8 21 4 -7 -5 -36 12 -54 29 -32 6 8 17 15 25 17 11 2 12 0 3 -11 -7 -8
-8 -17 -4 -21 4 -4 3 -7 -3 -5 -18 3 -75 -13 -70 -21 3 -4 -3 -7 -13 -6 -9 0
-20 9 -24 19 -9 20 -28 14 -28 -9 0 -12 -91 -14 -650 -14 -573 0 -649 -2 -644
-15 5 -13 85 -15 633 -16 540 0 723 -5 701 -20 -3 -2 -292 -6 -643 -9 l-638
-5 163 -162 c89 -89 159 -166 154 -170 -4 -4 -11 -1 -17 7 -7 11 -8 7 -3 -13
7 -29 -12 -39 -22 -12 -4 8 -12 15 -20 15 -33 0 25 -67 306 -353 l205 -208 5
-60 5 -60 486 488 c267 268 497 504 512 524 14 19 34 53 43 75 l16 39 -24 -22
c-14 -14 -33 -21 -45 -19 -17 4 -46 -21 -130 -106 -84 -85 -837 -838 -858
-857 -3 -2 -5 25 -5 60 l0 64 405 405 c222 223 418 424 435 448 33 44 61 53
100 32 40 -22 54 65 21 135 -28 59 -442 468 -465 459 -12 -5 -14 -9 -6 -14 9
-6 9 -13 0 -30 -6 -12 -9 -29 -6 -37 4 -9 -8 -1 -26 16 -18 18 -33 38 -33 44
-1 7 -7 11 -14 9 -6 -1 -102 87 -212 195 l-199 198 0 68 c0 38 4 67 9 65 5 -1
118 -110 250 -240 133 -131 245 -238 250 -238 4 0 7 11 6 25 -4 27 4 26 45 -9
62 -53 -21 35 -282 299 l-278 280 0 -52z m63 -429 l49 -51 -29 -34 c-17 -19
-33 -43 -38 -54 -7 -15 -10 -2 -15 50 -4 39 -11 88 -15 110 -4 22 -6 38 -4 35
2 -3 26 -28 52 -56z m97 -99 c18 -19 30 -38 25 -42 -4 -5 -10 -2 -12 5 -3 8
-18 27 -34 43 -15 16 -25 29 -21 29 5 0 23 -16 42 -35z m97 -102 c11 -16 11
-23 2 -29 -7 -4 -10 -3 -6 3 4 6 -2 18 -13 28 -14 13 -20 14 -20 5 0 -7 -3
-11 -6 -7 -9 9 6 29 19 24 5 -1 17 -13 24 -24z m-210 -25 c-3 -8 -6 -5 -6 6
-1 11 2 17 5 13 3 -3 4 -12 1 -19z m286 -53 c10 -14 16 -25 14 -25 -7 0 -47
37 -47 44 0 13 16 4 33 -19z m-266 -67 c-3 -7 -5 -2 -5 12 0 14 2 19 5 13 2
-7 2 -19 0 -25z m-137 -65 c-10 -16 -11 -15 -6 7 3 14 7 36 7 50 2 19 3 18 6
-7 2 -18 -1 -41 -7 -50z m482 53 c15 -21 16 -25 2 -30 -9 -3 -12 -2 -9 5 4 6
-1 19 -11 30 -9 10 -13 19 -8 19 5 0 17 -11 26 -24z m-505 -28 c-3 -7 -5 -2
-5 12 0 14 2 19 5 13 2 -7 2 -19 0 -25z m170 -30 c-2 -13 -4 -5 -4 17 -1 22 1
32 4 23 2 -10 2 -28 0 -40z m457 -65 c67 -73 54 -67 -19 8 -33 34 -53 58 -45
53 9 -5 38 -33 64 -61z m-176 -10 c-10 -2 -26 -2 -35 0 -10 3 -2 5 17 5 19 0
27 -2 18 -5z m179 -29 c-3 -3 -12 -4 -19 -1 -8 3 -5 6 6 6 11 1 17 -2 13 -5z
m61 -44 c14 0 15 -2 2 -9 -18 -12 -30 -5 -29 17 0 11 3 12 6 5 2 -7 12 -13 21
-13z m147 -10 c-3 -5 -10 -10 -16 -10 -5 0 -9 5 -9 10 0 6 7 10 16 10 8 0 12
-4 9 -10z m-23 -35 c4 -5 8 -23 8 -38 0 -24 3 -27 19 -22 13 4 27 -1 40 -14
25 -25 29 -66 7 -58 -9 4 -17 -2 -21 -14 -4 -10 -11 -19 -16 -19 -6 0 -6 7 1
19 16 31 12 41 -15 41 -23 0 -25 3 -25 50 0 49 -6 57 -42 51 -5 0 -8 3 -8 9 0
12 43 8 52 -5z m37 -5 c-8 -6 -6 -10 7 -13 19 -6 19 -6 0 -4 -11 1 -20 10 -22
19 -1 11 3 15 13 11 11 -4 12 -8 2 -13z m-79 -20 c0 -5 -3 -9 -7 -9 -22 4 -25
-3 -7 -17 10 -8 13 -12 5 -8 -11 5 -13 2 -9 -14 4 -12 3 -20 -2 -17 -16 10
-22 58 -8 66 18 12 28 11 28 -1z m-13 -112 c-3 -7 -5 -2 -5 12 0 14 2 19 5 13
2 -7 2 -19 0 -25z m177 17 c3 -8 1 -15 -4 -15 -6 0 -10 7 -10 15 0 8 2 15 4
15 2 0 6 -7 10 -15z m-104 -25 c0 -5 -4 -10 -10 -10 -5 0 -10 5 -10 10 0 6 5
10 10 10 6 0 10 -4 10 -10z m-163 -36 c-3 -3 -12 -4 -19 -1 -8 3 -5 6 6 6 11
1 17 -2 13 -5z m176 -1 c-7 -2 -21 -2 -30 0 -10 3 -4 5 12 5 17 0 24 -2 18 -5z
m54 1 c-3 -3 -12 -4 -19 -1 -8 3 -5 6 6 6 11 1 17 -2 13 -5z m-1277 -164 c17
-22 30 -40 28 -40 -2 0 -21 18 -42 40 -21 22 -33 40 -28 40 6 0 25 -18 42 -40z
m27 34 c-3 -3 -12 -4 -19 -1 -8 3 -5 6 6 6 11 1 17 -2 13 -5z m933 1 c0 -2
-10 -10 -22 -16 -21 -11 -22 -11 -9 4 13 16 31 23 31 12z m20 -9 c0 -2 -8 -10
-17 -17 -16 -13 -17 -12 -4 4 13 16 21 21 21 13z m-627 -13 c-7 -2 -19 -2 -25
0 -7 3 -2 5 12 5 14 0 19 -2 13 -5z m-46 -35 c-3 -8 -6 -5 -6 6 -1 11 2 17 5
13 3 -3 4 -12 1 -19z m642 6 c3 -4 -2 -4 -11 -1 -12 4 -18 0 -20 -16 -3 -20
-4 -20 -9 5 -5 22 -3 26 14 22 11 -2 22 -6 26 -10z m-865 -34 c-6 -5 -24 21
-24 34 0 6 6 1 14 -10 8 -10 12 -21 10 -24z m810 21 c3 -5 -1 -11 -9 -14 -9
-4 -12 -1 -8 9 6 16 10 17 17 5z m-823 -44 c12 -22 12 -22 -10 -3 -11 11 -21
23 -21 28 0 14 19 -1 31 -25z m536 -29 c-3 -8 -6 -5 -6 6 -1 11 2 17 5 13 3
-3 4 -12 1 -19z m213 18 c0 -2 -9 -6 -20 -9 -11 -3 -18 -1 -14 4 5 9 34 13 34
5z m-648 -76 c5 0 6 -4 3 -10 -6 -9 -85 61 -85 76 0 4 17 -9 37 -29 20 -20 40
-37 45 -37z m32 -46 c5 -14 4 -15 -9 -4 -17 14 -19 20 -6 20 5 0 12 -7 15 -16z
m413 -6 c-3 -8 -6 -5 -6 6 -1 11 2 17 5 13 3 -3 4 -12 1 -19z"/>
<path d="M1123 1823 c1 -27 10 -29 28 -6 12 15 12 16 -3 10 -9 -3 -19 -1 -21
6 -3 7 -4 2 -4 -10z"/>
<path d="M1800 1181 c0 -6 9 -9 20 -8 11 1 20 5 20 9 0 4 -9 8 -20 8 -11 0
-20 -4 -20 -9z"/>
<path d="M1600 1770 c6 -11 15 -20 20 -20 6 0 2 9 -7 20 -10 11 -19 20 -21 20
-1 0 2 -9 8 -20z"/>
<path d="M1527 1694 c6 -15 23 -19 23 -5 0 5 -7 11 -14 14 -10 4 -13 1 -9 -9z"/>
<path d="M585 1360 c-3 -5 -16 -10 -27 -10 -12 0 -19 -2 -16 -5 2 -3 27 -2 53
2 37 5 44 8 30 14 -28 11 -33 10 -40 -1z"/>
<path d="M1055 1330 c-3 -5 -11 -36 -16 -67 -22 -127 -23 -133 -6 -133 8 0 17
7 21 15 3 8 12 15 21 15 9 0 18 -7 21 -15 4 -8 14 -15 24 -15 16 0 17 5 2 83
-8 45 -19 92 -23 105 -9 23 -33 30 -44 12z m34 -117 c1 -7 -6 -13 -15 -13 -12
0 -15 6 -10 23 3 12 6 29 7 37 1 15 16 -24 18 -47z"/>
<path d="M1528 1333 c7 -3 16 -2 19 1 4 3 -2 6 -13 5 -11 0 -14 -3 -6 -6z"/>
<path d="M1150 1306 c0 -16 6 -26 15 -26 12 0 15 -15 15 -75 0 -68 2 -75 20
-75 18 0 20 7 20 75 0 60 3 75 15 75 8 0 15 9 15 20 0 16 -7 20 -34 20 -19 0
-41 3 -50 6 -12 5 -16 0 -16 -20z"/>
<path d="M888 1288 c-7 -70 3 -158 18 -158 9 0 14 12 15 38 l1 37 12 -35 c7
-19 20 -36 29 -38 15 -3 17 8 17 92 0 77 -3 96 -14 96 -10 0 -16 -13 -18 -37
l-3 -38 -17 38 c-21 46 -36 47 -40 5z"/>
<path d="M778 1303 c-28 -4 -28 -4 -28 -89 0 -68 3 -84 15 -84 10 0 15 11 16
33 l0 32 16 -32 c10 -19 24 -33 34 -33 17 0 17 2 2 37 -10 26 -12 38 -4 41 18
6 14 89 -5 96 -9 3 -16 5 -17 5 -1 -1 -14 -4 -29 -6z m32 -53 c0 -11 -7 -20
-15 -20 -8 0 -15 9 -15 20 0 11 7 20 15 20 8 0 15 -9 15 -20z"/>
<path d="M1280 1220 c0 -83 1 -90 20 -90 19 0 20 7 20 90 0 83 -1 90 -20 90
-19 0 -20 -7 -20 -90z"/>
<path d="M663 1293 l-33 -4 0 -80 0 -79 40 0 c29 0 40 4 40 15 0 9 -9 15 -25
15 -16 0 -25 6 -25 15 0 8 9 15 20 15 13 0 20 7 20 20 0 13 -7 20 -20 20 -11
0 -20 7 -20 15 0 8 9 15 20 15 13 0 20 7 20 20 0 11 -1 19 -2 18 -2 0 -18 -3
-35 -5z"/>
<path d="M1364 1287 c-3 -8 -4 -45 -2 -83 l3 -69 50 0 50 0 3 68 c2 42 -2 74
-9 83 -15 18 -88 19 -95 1z m66 -77 c0 -38 -4 -50 -15 -50 -11 0 -15 12 -15
50 0 38 4 50 15 50 11 0 15 -12 15 -50z"/>
<path d="M523 1273 c-19 -7 -16 -33 3 -33 13 0 15 -10 12 -55 -3 -47 0 -55 15
-55 14 0 17 10 17 60 0 33 4 60 10 60 6 0 10 7 10 15 0 15 -39 20 -67 8z"/>
<path d="M450 1238 l-1 -33 -17 28 c-29 46 -42 34 -42 -38 0 -50 3 -65 14 -65
8 0 16 12 18 28 l4 27 12 -27 c6 -16 18 -28 27 -28 12 0 15 14 15 70 0 56 -3
70 -15 70 -10 0 -15 -10 -15 -32z"/>
<path d="M1611 1244 c0 -11 3 -14 6 -6 3 7 2 16 -1 19 -3 4 -6 -2 -5 -13z"/>
<path d="M312 1193 c2 -46 7 -59 21 -61 15 -3 17 5 17 57 0 55 -2 61 -20 61
-19 0 -21 -5 -18 -57z"/>
<path d="M295 801 c-3 -5 0 -13 6 -17 7 -4 9 -3 5 4 -3 5 0 13 6 15 9 4 10 6
1 6 -6 1 -14 -3 -18 -8z"/>
<path d="M563 705 c0 -8 4 -12 9 -9 4 3 8 9 8 15 0 5 -4 9 -8 9 -5 0 -9 -7 -9
-15z"/>
</g>
</svg>
