<?xml version="1.0" encoding="UTF-8" standalone="no"?>
<svg
   xmlns:dc="http://purl.org/dc/elements/1.1/"
   xmlns:cc="http://creativecommons.org/ns#"
   xmlns:rdf="http://www.w3.org/1999/02/22-rdf-syntax-ns#"
   xmlns:svg="http://www.w3.org/2000/svg"
   xmlns="http://www.w3.org/2000/svg"
   viewBox="0 0 258.66666 258.66666"
   height="258.66666"
   width="258.66666"
   xml:space="preserve"
   id="svg2"
   version="1.1"><metadata
     id="metadata8"><rdf:RDF><cc:Work
         rdf:about=""><dc:format>image/svg+xml</dc:format><dc:type
           rdf:resource="http://purl.org/dc/dcmitype/StillImage" /></cc:Work></rdf:RDF></metadata><defs
     id="defs6" /><g
     transform="matrix(1.3333333,0,0,-1.3333333,0,258.66667)"
     id="g10"><g
       transform="scale(0.1)"
       id="g12"><path
         id="path14"
         style="fill:#231f20;fill-opacity:1;fill-rule:evenodd;stroke:none"
         d="M 2.59766,1933.23 H 1930.16 V 5.66797 H 2.59766 V 1933.23" /><path
         id="path16"
         style="fill:#231f20;fill-opacity:1;fill-rule:evenodd;stroke:none"
         d="M 91.3711,1904.88 H 1841.39 V 34.0156 H 91.3711 V 1904.88" /><path
         id="path18"
         style="fill:#ffffff;fill-opacity:1;fill-rule:evenodd;stroke:none"
         d="m 1404.33,1710.15 c 35.82,34.56 55.74,18.87 55.74,-16.38 V 541.941 c 0,-24.328 -19.73,-44.046 -44.05,-44.046 h -357.76 c -24.32,0 -44.05,19.718 -44.05,44.046 v 726.569 c -0.41,42.83 8.77,57.44 36.3,84.98 27.54,27.53 353.82,356.66 353.82,356.66" /><path
         id="path20"
         style="fill:#ffffff;fill-opacity:1;fill-rule:evenodd;stroke:none"
         d="m 528.426,1709.41 c -35.817,34.55 -54.656,19.2 -54.656,-16.04 L 472.691,541.199 c 0,-24.328 19.723,-44.047 44.047,-44.047 h 357.754 c 24.324,0 44.047,19.719 44.047,44.047 v 726.571 c 0.414,42.83 -8.762,57.44 -36.293,84.98 -27.535,27.53 -353.82,356.66 -353.82,356.66" /><path
         id="path22"
         style="fill:#ffffff;fill-opacity:1;fill-rule:evenodd;stroke:none"
         d="m 472.273,191.574 v 216.5 h 70.965 v -216.5 h -70.965" /><path
         id="path24"
         style="fill:#ffffff;fill-opacity:1;fill-rule:evenodd;stroke:none"
         d="m 695.203,346.918 c -1.203,7.52 -5.113,12.027 -10.226,14.734 -5.114,2.703 -11.43,3.911 -18.344,3.911 -15.637,0 -22.555,-4.512 -22.555,-12.325 0,-32.48 124.492,-12.336 124.492,-91.113 0,-50.215 -41.8,-74.57 -101.336,-74.57 -57.129,0 -94.414,33.371 -95.921,72.465 h 67.957 c 1.507,-7.821 5.71,-13.532 11.726,-17.137 5.715,-3.613 13.234,-5.414 20.145,-5.414 17.746,0 29.468,5.711 29.468,15.929 0,32.778 -124.484,10.227 -124.484,92.918 0,46.004 39.688,69.157 93.813,69.157 60.14,0 87.503,-30.668 92.617,-68.555 h -67.352" /><path
         id="path26"
         style="fill:#ffffff;fill-opacity:1;fill-rule:evenodd;stroke:none"
         d="m 788.965,408.07 h 70.961 V 278.469 c 0,-21.348 4.211,-39.688 33.383,-39.688 25.55,0 33.074,16.235 33.074,39.688 V 408.07 H 997.34 V 285.691 c 0,-69.457 -32.176,-99.832 -104.031,-99.832 -67.059,0 -104.344,25.559 -104.344,100.133 V 408.07" /><path
         id="path28"
         style="fill:#ffffff;fill-opacity:1;fill-rule:evenodd;stroke:none"
         d="m 1024.51,191.574 v 51.418 l 103.73,114.559 h -99.53 v 50.519 h 186.74 V 357.852 L 1110.21,242.09 h 109.45 v -50.516 h -195.15" /><path
         id="path30"
         style="fill:#ffffff;fill-opacity:1;fill-rule:evenodd;stroke:none"
         d="m 1251.66,410.27 h 70.97 V 280.668 c 0,-21.348 4.21,-39.688 33.37,-39.688 25.57,0 33.08,16.235 33.08,39.688 V 410.27 h 70.96 V 287.891 c 0,-69.457 -32.17,-99.832 -104.04,-99.832 -67.05,0 -104.34,25.558 -104.34,100.132 V 410.27" /></g></g></svg>