<?xml version="1.0" standalone="no"?>
<!DOCTYPE svg PUBLIC "-//W3C//DTD SVG 20010904//EN"
 "http://www.w3.org/TR/2001/REC-SVG-20010904/DTD/svg10.dtd">
<svg version="1.0" xmlns="http://www.w3.org/2000/svg"
 width="3508.000000pt" height="1329.000000pt" viewBox="0 0 3508.000000 1329.000000"
 preserveAspectRatio="xMidYMid meet">

<g transform="translate(0.000000,1329.000000) scale(0.100000,-0.100000)"
fill="#000000" stroke="none">
<path d="M27380 12639 c-1178 -66 -2312 -420 -3193 -995 -451 -295 -868 -677
-1154 -1057 -363 -481 -586 -1001 -670 -1562 -28 -188 -25 -669 5 -862 92
-585 334 -1121 732 -1617 1180 -1472 3480 -2233 5745 -1900 1176 173 2226 623
3040 1302 143 120 461 445 579 592 123 154 285 392 316 465 33 77 42 140 29
209 -28 155 -144 272 -291 293 -29 5 -633 6 -1343 3 l-1290 -5 -46 -21 c-65
-30 -117 -80 -212 -203 -384 -498 -946 -817 -1572 -891 -137 -17 -436 -15
-570 4 -265 35 -492 104 -730 221 -232 113 -413 240 -594 417 -344 336 -558
741 -642 1215 -31 173 -34 529 -6 698 78 465 275 856 601 1193 346 357 772
582 1276 673 146 27 488 37 641 20 289 -33 548 -109 800 -236 232 -116 404
-242 614 -448 146 -144 193 -177 283 -196 75 -16 2569 -16 2644 0 164 35 275
161 286 324 7 112 -13 165 -117 303 -968 1285 -2814 2083 -4791 2071 -124 -1
-290 -6 -370 -10z"/>
<path d="M15811 12489 c-184 -49 -378 -175 -474 -307 -54 -73 -4097 -6950
-4123 -7012 -47 -110 -24 -224 55 -277 80 -54 60 -53 1065 -53 901 0 934 1
1016 20 100 24 248 92 334 154 143 102 97 32 1636 2486 795 1268 1462 2321
1482 2342 109 110 254 112 366 5 36 -34 1172 -1782 1203 -1851 12 -26 19 -64
19 -107 0 -57 -4 -71 -29 -106 -17 -23 -50 -50 -78 -64 l-48 -24 -865 -6
c-792 -5 -870 -7 -925 -23 -184 -55 -341 -156 -448 -287 -39 -48 -431 -748
-479 -856 -52 -117 -41 -212 31 -284 82 -83 -70 -76 1897 -84 1682 -6 1752 -7
1833 -26 166 -38 355 -149 470 -276 35 -38 144 -196 252 -363 104 -162 211
-319 236 -349 97 -112 281 -225 449 -273 l79 -23 985 0 c803 0 992 2 1023 14
47 16 102 63 124 105 22 42 20 130 -4 191 -22 56 -4231 6949 -4294 7033 -61
80 -171 165 -294 227 -201 101 -111 95 -1344 94 -1043 0 -1078 -1 -1150 -20z"/>
<path d="M9075 12429 c-136 -10 -283 -47 -384 -96 -57 -28 -96 -57 -157 -117
-111 -112 -160 -208 -201 -398 -17 -79 -18 -203 -19 -2334 -1 -1704 -5 -2277
-14 -2360 -54 -483 -268 -715 -745 -811 -83 -17 -161 -18 -955 -18 -861 0
-866 0 -978 23 -322 65 -553 204 -689 415 -105 161 -132 263 -143 537 -7 159
-13 221 -30 278 -54 192 -147 295 -309 346 -138 43 -203 46 -1223 46 l-968 0
0 -582 c0 -321 5 -625 10 -676 43 -405 227 -776 546 -1097 393 -395 920 -660
1530 -767 l129 -23 2110 0 c1989 0 2118 1 2250 18 725 95 1278 366 1647 806
291 348 463 767 523 1276 15 126 16 310 13 1810 -2 919 -2 2135 -1 2703 l2
1032 -917 -1 c-504 -1 -966 -6 -1027 -10z"/>
<path d="M9339 2760 c-318 -29 -543 -123 -725 -304 -121 -120 -191 -249 -230
-421 -28 -121 -26 -370 3 -487 42 -167 111 -285 234 -404 115 -111 232 -179
401 -233 139 -44 259 -62 443 -66 687 -16 1134 303 1183 845 56 606 -319 1010
-990 1070 -125 11 -192 11 -319 0z m353 -335 c227 -47 393 -200 445 -411 23
-94 23 -314 0 -407 -68 -277 -296 -436 -625 -438 -342 -1 -587 180 -643 475
-14 74 -11 272 6 350 48 225 210 378 455 430 88 19 272 20 362 1z"/>
<path d="M20137 2759 c-198 -17 -394 -75 -529 -155 -99 -59 -267 -221 -317
-306 -49 -85 -81 -170 -103 -278 -27 -130 -21 -375 11 -495 88 -321 346 -550
723 -640 142 -34 256 -44 443 -40 236 5 406 41 574 120 113 54 196 112 279
197 120 122 185 246 222 428 28 135 24 349 -9 475 -128 486 -628 754 -1294
694z m418 -349 c214 -67 342 -202 389 -407 21 -95 21 -290 0 -386 -38 -171
-138 -299 -294 -376 -104 -51 -197 -71 -332 -72 -327 -2 -561 161 -635 441
-23 88 -23 310 0 397 40 147 100 236 208 313 132 92 247 121 454 116 109 -3
156 -9 210 -26z"/>
<path d="M31255 2763 c-426 -29 -689 -194 -736 -461 -22 -122 24 -254 121
-352 132 -133 271 -189 694 -276 356 -73 426 -94 484 -148 75 -67 69 -169 -14
-248 -80 -75 -172 -106 -344 -114 -196 -10 -339 29 -434 116 -55 51 -82 93
-112 174 -19 52 -26 61 -46 60 -127 -8 -371 -26 -401 -30 l-38 -6 6 -41 c12
-69 61 -192 100 -251 162 -244 484 -360 950 -343 248 10 396 40 542 112 203
100 323 274 323 469 0 173 -76 309 -228 410 -129 85 -272 129 -682 211 -315
62 -434 112 -460 190 -7 20 -9 46 -6 59 24 94 178 156 389 156 135 0 209 -13
284 -50 71 -35 104 -73 139 -157 l23 -58 157 4 c86 2 164 5 173 6 9 2 44 4 79
4 l62 1 0 33 c0 42 -25 129 -55 187 -53 104 -180 210 -320 265 -159 63 -416
93 -650 78z"/>
<path d="M2730 1805 l0 -935 220 0 220 0 2 727 3 727 231 -725 231 -724 231
-3 230 -2 26 77 c14 43 116 362 226 708 111 347 205 633 208 637 4 4 7 -313 7
-705 l0 -712 223 -3 222 -2 0 935 0 935 -357 -2 -358 -3 -211 -630 c-117 -346
-214 -623 -218 -615 -3 8 -100 292 -214 630 l-209 615 -356 3 -357 2 0 -935z"/>
<path d="M13980 2580 l0 -160 350 0 350 0 0 -775 0 -775 240 0 240 0 0 775 0
775 350 0 351 0 -3 158 -3 157 -937 3 -938 2 0 -160z"/>
<path d="M25068 2734 c-5 -4 -8 -425 -8 -936 l0 -928 240 0 240 0 0 390 0 390
93 0 c222 -1 323 -35 431 -145 57 -57 255 -285 481 -552 l70 -83 282 0 c156 0
283 3 283 8 0 10 -380 484 -443 552 -84 91 -161 153 -258 210 l-93 55 73 12
c230 38 412 148 485 290 91 182 54 403 -93 550 -96 97 -223 147 -432 173 -108
13 -1340 26 -1351 14z m1258 -338 c119 -37 180 -117 172 -227 -8 -116 -96
-189 -248 -208 -41 -5 -218 -10 -392 -10 l-318 -2 0 237 0 237 368 -6 c293 -4
377 -9 418 -21z"/>
</g>
</svg>
