<?xml version="1.0" encoding="UTF-8" standalone="no"?>
<svg
   xmlns:dc="http://purl.org/dc/elements/1.1/"
   xmlns:cc="http://creativecommons.org/ns#"
   xmlns:rdf="http://www.w3.org/1999/02/22-rdf-syntax-ns#"
   xmlns:svg="http://www.w3.org/2000/svg"
   xmlns="http://www.w3.org/2000/svg"
   viewBox="0 0 535.66669 106.74667"
   height="106.74667"
   width="535.66669"
   xml:space="preserve"
   id="svg2"
   version="1.1"><metadata
     id="metadata8"><rdf:RDF><cc:Work
         rdf:about=""><dc:format>image/svg+xml</dc:format><dc:type
           rdf:resource="http://purl.org/dc/dcmitype/StillImage" /></cc:Work></rdf:RDF></metadata><defs
     id="defs6" /><g
     transform="matrix(1.3333333,0,0,-1.3333333,0,106.74667)"
     id="g10"><g
       transform="scale(0.1)"
       id="g12"><path
         id="path14"
         style="fill:#e22739;fill-opacity:1;fill-rule:nonzero;stroke:none"
         d="M 0,0 H 4017.52 V 677.801 H 0 Z" /><path
         id="path16"
         style="fill:#ffffff;fill-opacity:1;fill-rule:nonzero;stroke:none"
         d="m 36.2891,27.2148 h 644.086 v 619.488 H 36.2891 Z" /><path
         id="path18"
         style="fill:#ffffff;fill-opacity:1;fill-rule:nonzero;stroke:none"
         d="m 1051.78,547.828 h 102.44 L 1020.47,341.289 1169.05,133.484 H 1055.4 L 921.555,333.91 h -1.094 V 133.484 H 817.938 V 547.828 H 920.461 V 345.82 h 1.094 l 130.225,202.008" /><path
         id="path20"
         style="fill:#ffffff;fill-opacity:1;fill-rule:nonzero;stroke:none"
         d="m 1309.72,461.785 v -74.422 h 147.35 V 301.332 H 1309.72 V 219.52 h 159.13 V 133.484 H 1207.2 v 414.344 h 256.47 v -86.043 h -153.95" /><path
         id="path22"
         style="fill:#ffffff;fill-opacity:1;fill-rule:nonzero;stroke:none"
         d="m 1518.45,547.828 h 118.06 l 135.07,-268.887 h 1.11 v 268.887 h 97.32 V 133.484 h -118.06 l -140.26,279.797 h -1.1 l -0.14,-279.797 h -92 v 414.344" /><path
         id="path24"
         style="fill:#ffffff;fill-opacity:1;fill-rule:nonzero;stroke:none"
         d="m 2069.34,280.203 h 1.09 l 65.15,267.625 h 80.54 l 77.09,-267.625 h 1.11 l 52.11,267.625 h 96.55 l -96.14,-414.344 h -99.55 l -72.53,245.329 h -1.11 l -60.59,-245.329 h -98.99 l -108.99,414.344 h 98.5 l 65.76,-267.625" /><path
         id="path26"
         style="fill:#ffffff;fill-opacity:1;fill-rule:nonzero;stroke:none"
         d="m 2880.1,348.348 c 0,-134.082 -90.99,-228.602 -223.97,-228.602 -132.97,0 -223.94,94.52 -223.94,228.602 0,125.285 104.71,213.215 223.94,213.215 119.25,0 223.97,-87.93 223.97,-213.215 z m -346.24,-0.008 c 0,-78.266 55.15,-135.469 122.36,-135.469 67.23,0 122.38,57.203 122.38,135.469 0,62.613 -55.15,119.824 -122.38,119.824 -67.21,0 -122.36,-57.211 -122.36,-119.824" /><path
         id="path28"
         style="fill:#ffffff;fill-opacity:1;fill-rule:nonzero;stroke:none"
         d="m 3237.11,133.484 h -113.35 l -122.4,185.282 h -1.1 V 133.484 h -92.15 v 414.344 h 161 c 81.88,0 143.98,-39.015 143.98,-127.496 0,-57.148 -26.69,-106.594 -85.48,-117.047 z m -236.85,228.61 h 10.44 c 35.16,0 100.66,-7.235 100.66,51.644 0,58.891 -65.5,46.477 -100.66,46.477 h -10.44 v -98.121" /><path
         id="path30"
         style="fill:#ffffff;fill-opacity:1;fill-rule:nonzero;stroke:none"
         d="m 3429.79,133.484 h -107.7 v 328.301 h -89.01 v 86.043 h 270.17 v -86.043 h -73.46 V 133.484" /><path
         id="path32"
         style="fill:#ffffff;fill-opacity:1;fill-rule:nonzero;stroke:none"
         d="m 3783.49,393.105 v 154.723 h 102.52 V 133.484 H 3783.49 V 303.285 H 3648.71 V 133.484 H 3546.2 v 414.344 h 102.51 V 393.105 h 134.78" /><path
         id="path34"
         style="fill:#e22739;fill-opacity:1;fill-rule:nonzero;stroke:none"
         d="m 524.027,420.078 c 0,51.66 -23.402,97.832 -60.183,128.52 v 57.656 c -10.332,4.101 -20.973,7.613 -31.848,10.504 v -47.266 c -9.281,4.684 -19.058,8.52 -29.23,11.422 v 42.024 c -10.453,1.648 -21.078,2.71 -31.844,3.203 v -39.407 c -4.688,0.395 -9.383,0.645 -14.164,0.645 -5.086,0 -10.102,-0.266 -15.074,-0.719 v 39.356 c -10.782,-0.61 -21.411,-1.797 -31.848,-3.547 v -41.805 c -10.172,-2.973 -19.949,-6.879 -29.215,-11.641 v 46.973 C 269.73,612.984 259.102,609.32 248.77,605.102 v -57.301 c -36.254,-30.692 -59.305,-76.492 -59.305,-127.723 0,-51.195 23.051,-97.015 59.305,-127.711 V 72.0703 c 10.332,-4.2344 20.96,-7.8828 31.851,-10.8945 V 271.148 c 9.266,-4.742 19.043,-8.664 29.215,-11.632 V 54.6953 c 10.437,-1.7461 21.066,-2.9375 31.848,-3.5351 V 253.512 c 4.972,-0.457 9.988,-0.711 15.074,-0.711 4.781,0 9.476,0.246 14.164,0.637 V 51.0195 c 10.766,0.4922 21.391,1.5703 31.844,3.2149 V 259.262 c 10.172,2.902 19.949,6.738 29.23,11.418 V 60.4102 c 10.875,2.8906 21.516,6.4062 31.848,10.5039 V 291.578 c 36.781,30.692 60.183,76.86 60.183,128.5" /><path
         id="path36"
         style="fill:#ffffff;fill-opacity:1;fill-rule:nonzero;stroke:none"
         d="m 356.734,283.422 c 75.555,0 136.801,61.246 136.801,136.801 0,75.558 -61.246,136.797 -136.801,136.797 -75.55,0 -136.8,-61.239 -136.8,-136.797 0,-75.555 61.25,-136.801 136.8,-136.801" /><path
         id="path38"
         style="fill:#e22739;fill-opacity:1;fill-rule:nonzero;stroke:none"
         d="m 356.73,295.332 c 68.973,0 124.875,55.918 124.875,124.887 0,68.965 -55.902,124.886 -124.875,124.886 -68.976,0 -124.894,-55.921 -124.894,-124.886 0,-68.969 55.918,-124.887 124.894,-124.887" /><path
         id="path40"
         style="fill:#ffffff;fill-opacity:1;fill-rule:nonzero;stroke:none"
         d="m 364.551,516.473 h 28.008 l -34.567,-41.125 37.672,-45.75 h -29.262 l -29.156,37.687 h -0.226 v -37.687 h -22.586 v 86.875 h 22.586 v -35.825 h 0.226 l 27.305,35.825" /><path
         id="path42"
         style="fill:#ffffff;fill-opacity:1;fill-rule:nonzero;stroke:none"
         d="m 327.738,356.52 h 0.231 l 16.703,56.109 h 17.973 l 15.558,-56.109 h 0.227 l 14.871,56.109 h 23.5 l -26.274,-86.875 h -23.039 l -13.711,50.348 h -0.238 l -15.547,-50.348 h -22.926 l -24.425,86.875 h 23.504 l 13.593,-56.109" /><path
         id="path44"
         style="fill:#e22739;fill-opacity:1;fill-rule:nonzero;stroke:none"
         d="m 3931.17,728.324 h -10.82 v 50.637 h 18.91 c 13.08,0 20.79,-3.727 20.79,-15.305 0,-9.32 -5.47,-12.683 -12.2,-13.179 l 12.94,-22.153 h -12.82 l -11.7,21.274 h -5.1 z m 9.6,29.86 c 4.85,0 7.7,1 7.7,6.597 0,5.219 -5.59,5.598 -9.7,5.598 h -7.6 v -12.195 z m -1.75,-51.641 c -25,0 -47.28,17.309 -47.28,47.039 0,29.734 22.28,47.027 47.28,47.027 24.88,0 47.15,-17.293 47.15,-47.027 0,-29.73 -22.27,-47.039 -47.15,-47.039 z m 0,83.129 c -18.67,0 -33.73,-14.438 -33.73,-36.09 0,-21.652 15.06,-36.211 33.73,-36.086 v -0.125 c 18.16,0 33.6,14.559 33.6,36.211 0,21.652 -15.44,36.09 -33.6,36.09" /></g></g></svg>